<svg xmlns="http://www.w3.org/2000/svg" xmlns:xlink="http://www.w3.org/1999/xlink" width="500" zoomAndPan="magnify" viewBox="0 0 375 374.999991" height="500" preserveAspectRatio="xMidYMid meet" version="1.0"><defs><g/></defs><g fill="#282828" fill-opacity="1"><g transform="translate(1.37459, 102.669167)"><g><path d="M 1.21875 -53.1875 C 1.125 -53.632812 1.078125 -54.035156 1.078125 -54.390625 C 1.078125 -55.296875 1.28125 -56.019531 1.6875 -56.5625 C 2.226562 -57.363281 3.082031 -57.675781 4.25 -57.5 C 19.1875 -57.5 27.625 -57.546875 29.5625 -57.640625 C 30.957031 -57.640625 31.878906 -56.894531 32.328125 -55.40625 C 32.691406 -54.6875 32.710938 -53.773438 32.390625 -52.671875 C 32.078125 -51.566406 31.425781 -50.972656 30.4375 -50.890625 C 26.925781 -50.796875 25.171875 -50.242188 25.171875 -49.234375 C 25.171875 -48.222656 29.175781 -37.972656 37.1875 -18.484375 C 37.632812 -17.367188 38.128906 -17.367188 38.671875 -18.484375 L 49.0625 -42.59375 C 47.488281 -45.738281 46.253906 -47.757812 45.359375 -48.65625 C 43.960938 -49.96875 42.296875 -50.625 40.359375 -50.625 C 39.816406 -50.707031 39.21875 -50.75 38.5625 -50.75 C 37.914062 -50.75 37.363281 -51.109375 36.90625 -51.828125 C 36.457031 -52.546875 36.234375 -53.289062 36.234375 -54.0625 C 36.148438 -54.875 36.285156 -55.671875 36.640625 -56.453125 C 37.003906 -57.242188 37.546875 -57.640625 38.265625 -57.640625 C 46.992188 -57.410156 53.675781 -57.296875 58.3125 -57.296875 C 61.769531 -57.296875 64.085938 -57.363281 65.265625 -57.5 L 66.078125 -57.640625 C 66.253906 -57.640625 66.410156 -57.640625 66.546875 -57.640625 C 68.253906 -57.640625 69.222656 -56.691406 69.453125 -54.796875 C 69.492188 -54.441406 69.515625 -54.109375 69.515625 -53.796875 C 69.515625 -52.265625 69.066406 -51.25 68.171875 -50.75 C 64.023438 -50.664062 61.953125 -50.015625 61.953125 -48.796875 C 61.953125 -47.890625 62.582031 -45.910156 63.84375 -42.859375 L 74.234375 -18.828125 C 74.597656 -17.703125 75.003906 -17.75 75.453125 -18.96875 C 77.023438 -22.5625 78.691406 -26.519531 80.453125 -30.84375 C 84.140625 -39.53125 86.117188 -44.632812 86.390625 -46.15625 C 86.660156 -47.46875 86.546875 -48.457031 86.046875 -49.125 C 85.554688 -49.800781 84.960938 -50.21875 84.265625 -50.375 C 83.566406 -50.539062 82.519531 -50.664062 81.125 -50.75 L 77.953125 -50.75 C 77.046875 -51.019531 76.570312 -52.234375 76.53125 -54.390625 C 76.488281 -56.554688 77.140625 -57.640625 78.484375 -57.640625 C 81.722656 -57.546875 85.289062 -57.5 89.1875 -57.5 C 93.082031 -57.5 97.300781 -57.546875 101.84375 -57.640625 C 102.019531 -57.679688 102.195312 -57.703125 102.375 -57.703125 C 103.414062 -57.742188 104.113281 -57.269531 104.46875 -56.28125 C 104.738281 -55.65625 104.875 -55.023438 104.875 -54.390625 C 104.875 -53.859375 104.785156 -53.320312 104.609375 -52.78125 C 104.242188 -51.519531 103.660156 -50.84375 102.859375 -50.75 C 99.796875 -50.570312 97.816406 -49.875 96.921875 -48.65625 C 96.460938 -48.03125 95.582031 -46.140625 94.28125 -42.984375 C 89.019531 -30.753906 83.082031 -16.472656 76.46875 -0.140625 C 76.195312 0.578125 75.363281 1.03125 73.96875 1.21875 C 72.75 1.394531 71.578125 1.347656 70.453125 1.078125 C 68.972656 0.984375 67.960938 0.351562 67.421875 -0.8125 L 54.328125 -32.0625 C 53.785156 -33.1875 53.3125 -33.320312 52.90625 -32.46875 C 50.976562 -28.5 48.378906 -22.597656 45.109375 -14.765625 C 41.847656 -6.941406 39.859375 -2.203125 39.140625 -0.546875 C 38.691406 0.671875 37.953125 1.367188 36.921875 1.546875 C 36.378906 1.734375 35.734375 1.828125 34.984375 1.828125 C 34.242188 1.828125 33.445312 1.734375 32.59375 1.546875 C 31.5625 1.273438 30.726562 0.445312 30.09375 -0.9375 L 13.5625 -40.5 C 11.539062 -45.175781 10.019531 -48.007812 9 -49 C 7.988281 -49.988281 5.957031 -50.570312 2.90625 -50.75 C 2.050781 -50.84375 1.488281 -51.65625 1.21875 -53.1875 Z M 1.21875 -53.1875 "/></g></g></g><g fill="#282828" fill-opacity="1"><g transform="translate(108.854204, 102.669167)"><g><path d="M 2.90625 -27.9375 C 2.90625 -36.894531 5.671875 -44.363281 11.203125 -50.34375 C 16.734375 -56.332031 23.6875 -59.328125 32.0625 -59.328125 C 41.914062 -59.328125 48.773438 -55.164062 52.640625 -46.84375 C 54.128906 -43.875 55.390625 -41.757812 56.421875 -40.5 C 56.734375 -39.863281 56.890625 -39.234375 56.890625 -38.609375 C 56.890625 -38.066406 56.78125 -37.523438 56.5625 -36.984375 C 56.101562 -35.816406 55.085938 -35.1875 53.515625 -35.09375 C 50.140625 -34.957031 45.503906 -34.890625 39.609375 -34.890625 C 33.722656 -34.890625 26.59375 -34.957031 18.21875 -35.09375 C 16.914062 -35.09375 16.285156 -33.8125 16.328125 -31.25 C 16.328125 -24.8125 18.070312 -19.507812 21.5625 -15.34375 C 25.050781 -11.1875 29.425781 -9.109375 34.6875 -9.109375 C 40.488281 -9.109375 45.6875 -11.785156 50.28125 -17.140625 C 51.175781 -18.171875 52.347656 -18.53125 53.796875 -18.21875 C 54.691406 -18.039062 55.421875 -17.398438 55.984375 -16.296875 C 56.546875 -15.191406 56.535156 -14.191406 55.953125 -13.296875 C 46.816406 -3.078125 37.929688 2.050781 29.296875 2.09375 C 21.734375 2.09375 15.441406 -0.828125 10.421875 -6.671875 C 5.410156 -12.523438 2.90625 -19.613281 2.90625 -27.9375 Z M 17.953125 -42.59375 C 18.128906 -42.320312 18.738281 -42.1875 19.78125 -42.1875 L 38.40625 -42.1875 C 38.894531 -42.1875 39.320312 -42.273438 39.6875 -42.453125 C 39.957031 -42.585938 40.09375 -42.765625 40.09375 -42.984375 C 40.09375 -49.242188 36.398438 -52.375 29.015625 -52.375 C 24.242188 -52.375 20.554688 -49.113281 17.953125 -42.59375 Z M 17.953125 -42.59375 "/></g></g></g><g fill="#282828" fill-opacity="1"><g transform="translate(174.167688, 102.669167)"><g><path d="M 2.765625 -49.328125 C 2.492188 -50.234375 2.359375 -51.023438 2.359375 -51.703125 C 2.359375 -53.003906 2.8125 -53.96875 3.71875 -54.59375 C 9.519531 -56.257812 12.554688 -57.453125 12.828125 -58.171875 C 12.910156 -58.441406 12.976562 -58.914062 13.03125 -59.59375 C 13.03125 -59.957031 13.050781 -60.617188 13.09375 -61.578125 C 13.132812 -62.546875 13.15625 -63.4375 13.15625 -64.25 C 13.425781 -69.78125 14.25 -74.34375 15.625 -77.9375 C 17 -81.539062 19.484375 -85.320312 23.078125 -89.28125 C 30.003906 -96.75 37.429688 -100.484375 45.359375 -100.484375 C 48.003906 -100.484375 50.9375 -99.910156 54.15625 -98.765625 C 57.375 -97.617188 59.726562 -95.988281 61.21875 -93.875 C 61.570312 -93.25 61.75 -92.460938 61.75 -91.515625 C 61.75 -90.253906 60.78125 -88.140625 58.84375 -85.171875 C 57.945312 -83.679688 56.820312 -82.9375 55.46875 -82.9375 C 54.257812 -82.9375 52.867188 -83.566406 51.296875 -84.828125 C 47.335938 -88.160156 43.332031 -89.828125 39.28125 -89.828125 C 36.894531 -89.828125 34.722656 -89.117188 32.765625 -87.703125 C 30.804688 -86.285156 29.378906 -84.363281 28.484375 -81.9375 C 27.265625 -78.5625 26.65625 -74.597656 26.65625 -70.046875 C 26.65625 -69.734375 26.65625 -69.421875 26.65625 -69.109375 L 26.796875 -60.40625 C 26.796875 -59.1875 27.085938 -58.578125 27.671875 -58.578125 L 37.046875 -58.578125 C 38.890625 -58.578125 39.945312 -58.128906 40.21875 -57.234375 L 40.5 -56.6875 L 41.4375 -49.875 C 41.257812 -48.84375 40.96875 -48.164062 40.5625 -47.84375 C 40.15625 -47.53125 39.390625 -47.375 38.265625 -47.375 L 27.0625 -47.578125 C 26.882812 -47.578125 26.796875 -47.015625 26.796875 -45.890625 L 26.796875 -18.625 C 26.796875 -13.09375 27.175781 -9.832031 27.9375 -8.84375 C 28.382812 -8.207031 29.398438 -7.78125 30.984375 -7.5625 C 32.054688 -7.375 33.085938 -7.28125 34.078125 -7.28125 C 34.578125 -7.28125 35.050781 -7.28125 35.5 -7.28125 C 36.894531 -7.414062 38.109375 -7.441406 39.140625 -7.359375 C 40.984375 -7.265625 42 -5.867188 42.1875 -3.171875 C 42.1875 -2.359375 41.925781 -1.554688 41.40625 -0.765625 C 40.882812 0.015625 40.265625 0.40625 39.546875 0.40625 C 32.710938 0.175781 26.457031 0.0625 20.78125 0.0625 C 15.113281 0.0625 10.078125 0.175781 5.671875 0.40625 C 5.578125 0.40625 5.488281 0.40625 5.40625 0.40625 C 4.726562 0.40625 4.1875 0.046875 3.78125 -0.671875 C 3.28125 -1.441406 3.03125 -2.273438 3.03125 -3.171875 C 3.03125 -3.796875 3.164062 -4.492188 3.4375 -5.265625 C 4.019531 -6.429688 5.191406 -7.015625 6.953125 -7.015625 C 7.046875 -7.015625 7.113281 -7.015625 7.15625 -7.015625 C 9.71875 -7.015625 11.300781 -7.644531 11.90625 -8.90625 C 12.519531 -10.164062 12.828125 -13.5625 12.828125 -19.09375 L 12.828125 -46.5625 C 12.828125 -47.101562 12.554688 -47.53125 12.015625 -47.84375 L 5.671875 -47.84375 C 4.003906 -47.84375 3.035156 -48.335938 2.765625 -49.328125 Z M 2.765625 -49.328125 "/></g></g></g><g fill="#282828" fill-opacity="1"><g transform="translate(227.450498, 102.669167)"><g><path d="M 2.765625 -53.796875 C 3.210938 -54.597656 3.820312 -55.132812 4.59375 -55.40625 C 9 -57.613281 12.820312 -63.148438 16.0625 -72.015625 C 16.332031 -73.410156 17.476562 -74.109375 19.5 -74.109375 C 21.4375 -74.109375 22.40625 -73.34375 22.40625 -71.8125 L 22.203125 -64.515625 C 22.203125 -62.492188 22.269531 -60.804688 22.40625 -59.453125 C 22.40625 -59.367188 22.492188 -59.300781 22.671875 -59.25 C 22.859375 -59.207031 23.039062 -59.148438 23.21875 -59.078125 C 23.394531 -59.015625 23.53125 -58.984375 23.625 -58.984375 L 37.046875 -58.984375 C 37.953125 -58.984375 38.773438 -58.664062 39.515625 -58.03125 C 40.253906 -57.40625 40.445312 -56.441406 40.09375 -55.140625 C 39.726562 -53.472656 39.253906 -51.921875 38.671875 -50.484375 C 38.046875 -49.265625 36.898438 -48.65625 35.234375 -48.65625 L 23.75 -48.9375 C 22.851562 -48.9375 22.40625 -48.191406 22.40625 -46.703125 L 22.40625 -25.171875 C 22.40625 -18.421875 22.910156 -14.03125 23.921875 -12 C 24.929688 -9.976562 26.675781 -8.96875 29.15625 -8.96875 C 31.445312 -8.96875 33.695312 -11.039062 35.90625 -15.1875 C 36.53125 -16.3125 37.425781 -16.804688 38.59375 -16.671875 C 39.769531 -16.535156 40.671875 -16.128906 41.296875 -15.453125 C 41.796875 -14.828125 42.046875 -14.109375 42.046875 -13.296875 C 42.046875 -12.753906 41.929688 -12.144531 41.703125 -11.46875 C 37.878906 -2.789062 32.28125 1.546875 24.90625 1.546875 C 20.226562 1.546875 16.425781 -0.160156 13.5 -3.578125 C 10.570312 -6.992188 9.109375 -11.335938 9.109375 -16.609375 L 9.109375 -46.84375 C 9.109375 -47.96875 8.882812 -48.570312 8.4375 -48.65625 C 7.40625 -48.75 5.785156 -48.929688 3.578125 -49.203125 C 2.859375 -50.410156 2.5 -51.488281 2.5 -52.4375 C 2.5 -52.9375 2.585938 -53.390625 2.765625 -53.796875 Z M 2.765625 -53.796875 "/></g></g></g><g fill="#282828" fill-opacity="1"><g transform="translate(25.402946, 177.229504)"><g><path d="M 3.171875 -11.609375 C 3.171875 -18.804688 8.273438 -23.734375 18.484375 -26.390625 C 21.328125 -27.109375 25.445312 -28.679688 30.84375 -31.109375 C 31.289062 -31.554688 31.515625 -31.960938 31.515625 -32.328125 L 31.375 -40.765625 C 31.289062 -47.785156 28.796875 -51.296875 23.890625 -51.296875 C 22.671875 -51.296875 21.332031 -50.765625 19.875 -49.703125 C 18.414062 -48.648438 17.6875 -47.648438 17.6875 -46.703125 C 17.6875 -45.304688 17.863281 -44.160156 18.21875 -43.265625 C 17.5 -42.453125 15.992188 -41.484375 13.703125 -40.359375 C 11.410156 -39.234375 9.832031 -38.535156 8.96875 -38.265625 C 8.113281 -37.992188 7.375 -37.859375 6.75 -37.859375 C 4.90625 -37.859375 3.984375 -39.097656 3.984375 -41.578125 C 3.984375 -45.085938 7 -49.203125 13.03125 -53.921875 C 18.019531 -57.703125 22.515625 -59.59375 26.515625 -59.59375 C 29.578125 -59.59375 32.625 -58.828125 35.65625 -57.296875 C 38.695312 -55.765625 41.050781 -53.804688 42.71875 -51.421875 C 43.9375 -49.765625 44.679688 -48.25 44.953125 -46.875 C 45.222656 -45.5 45.359375 -42.675781 45.359375 -38.40625 L 45.359375 -14.375 C 45.359375 -12.800781 45.425781 -11.640625 45.5625 -10.890625 C 45.695312 -10.148438 45.851562 -9.691406 46.03125 -9.515625 C 46.207031 -9.335938 46.476562 -9.25 46.84375 -9.25 C 48.320312 -9.25 49.894531 -9.945312 51.5625 -11.34375 C 52.1875 -11.789062 52.929688 -12.015625 53.796875 -12.015625 C 55.097656 -11.835938 55.882812 -11.117188 56.15625 -9.859375 C 56.238281 -9.398438 56.28125 -8.972656 56.28125 -8.578125 C 56.28125 -7.847656 56.125 -7.191406 55.8125 -6.609375 C 49.5625 -1.078125 44.410156 1.6875 40.359375 1.6875 C 36.128906 1.644531 33.453125 -0.582031 32.328125 -5 L 32.328125 -4.859375 C 29.085938 -2.378906 26.507812 -0.671875 24.59375 0.265625 C 22.6875 1.210938 20.382812 1.6875 17.6875 1.6875 C 13.539062 1.6875 10.082031 0.441406 7.3125 -2.046875 C 4.550781 -4.546875 3.171875 -7.734375 3.171875 -11.609375 Z M 16.46875 -13.296875 C 16.46875 -11.628906 17.019531 -10.242188 18.125 -9.140625 C 19.226562 -8.035156 20.65625 -7.484375 22.40625 -7.484375 C 23.53125 -7.484375 25.171875 -8.171875 27.328125 -9.546875 C 29.492188 -10.921875 30.84375 -12.171875 31.375 -13.296875 L 31.375 -22.40625 C 31.375 -22.675781 31.285156 -22.945312 31.109375 -23.21875 C 30.972656 -23.394531 30.835938 -23.484375 30.703125 -23.484375 L 30.578125 -23.484375 C 29.265625 -22.859375 26.675781 -21.710938 22.8125 -20.046875 C 18.582031 -18.472656 16.46875 -16.222656 16.46875 -13.296875 Z M 16.46875 -13.296875 "/></g></g></g><g fill="#282828" fill-opacity="1"><g transform="translate(29.416508, 255.57295)"><g><path d="M 3.03125 -3.171875 C 3.03125 -4.066406 3.078125 -4.726562 3.171875 -5.15625 C 3.265625 -5.582031 3.546875 -5.953125 4.015625 -6.265625 C 4.484375 -6.585938 5.210938 -6.75 6.203125 -6.75 C 8.773438 -6.75 10.453125 -7.378906 11.234375 -8.640625 C 12.023438 -9.898438 12.421875 -13.296875 12.421875 -18.828125 L 12.421875 -42.59375 C 12.421875 -43.894531 12.285156 -44.632812 12.015625 -44.8125 C 11.472656 -45.082031 10.414062 -45.488281 8.84375 -46.03125 C 7.269531 -46.570312 6.164062 -46.976562 5.53125 -47.25 C 4.40625 -47.78125 3.753906 -48.25 3.578125 -48.65625 C 3.484375 -48.84375 3.4375 -49.066406 3.4375 -49.328125 L 3.4375 -51.296875 C 3.4375 -52.691406 4.09375 -53.613281 5.40625 -54.0625 C 6.882812 -54.78125 8.285156 -55.394531 9.609375 -55.90625 C 10.941406 -56.425781 12.753906 -57.046875 15.046875 -57.765625 C 17.335938 -58.484375 19.410156 -59.226562 21.265625 -60 C 21.890625 -60.21875 22.453125 -60.328125 22.953125 -60.328125 C 23.578125 -60.328125 24.113281 -60.148438 24.5625 -59.796875 C 25.375 -59.160156 25.757812 -58.304688 25.71875 -57.234375 C 25.800781 -55.929688 25.84375 -53.296875 25.84375 -49.328125 C 25.9375 -49.421875 26.304688 -50.300781 26.953125 -51.96875 C 27.609375 -53.632812 28.207031 -54.945312 28.75 -55.90625 C 29.289062 -56.875 29.898438 -57.539062 30.578125 -57.90625 C 31.878906 -58.53125 33.191406 -58.863281 34.515625 -58.90625 C 35.847656 -58.957031 36.972656 -58.847656 37.890625 -58.578125 C 38.816406 -58.304688 40.007812 -57.921875 41.46875 -57.421875 C 42.9375 -56.929688 44.140625 -56.597656 45.078125 -56.421875 L 46.296875 -55.953125 C 47.828125 -55.453125 48.59375 -54.664062 48.59375 -53.59375 C 48.59375 -53.269531 48.523438 -52.953125 48.390625 -52.640625 C 47.535156 -50.171875 46.050781 -47 43.9375 -43.125 C 41.914062 -43.300781 39.800781 -43.953125 37.59375 -45.078125 C 35.75 -45.984375 34.375 -46.4375 33.46875 -46.4375 C 31.269531 -46.4375 28.820312 -44.003906 26.125 -39.140625 L 26.125 -19.78125 C 26.125 -18.96875 26.144531 -17.953125 26.1875 -16.734375 C 26.226562 -15.523438 26.25 -14.332031 26.25 -13.15625 C 26.425781 -10.101562 26.796875 -8.296875 27.359375 -7.734375 C 27.921875 -7.171875 29.664062 -6.890625 32.59375 -6.890625 L 35.5 -6.890625 C 37.070312 -6.890625 37.96875 -5.921875 38.1875 -3.984375 C 38.414062 -2.046875 38.082031 -0.71875 37.1875 0 C 36.820312 0.269531 36.210938 0.40625 35.359375 0.40625 C 33.242188 0.40625 30.207031 0.359375 26.25 0.265625 C 22.289062 0.179688 18.679688 0.140625 15.421875 0.140625 C 12.160156 0.140625 9.046875 0.226562 6.078125 0.40625 C 5.941406 0.40625 5.804688 0.40625 5.671875 0.40625 C 4.585938 0.40625 3.890625 0.0859375 3.578125 -0.546875 C 3.210938 -1.265625 3.03125 -2.140625 3.03125 -3.171875 Z M 3.03125 -3.171875 "/></g></g></g><g fill="#282828" fill-opacity="1"><g transform="translate(19.530082, 332.302148)"><g><path d="M 1.34375 32.0625 C 1.800781 31.34375 2.722656 30.984375 4.109375 30.984375 C 7.265625 30.984375 9.257812 30.285156 10.09375 28.890625 C 10.925781 27.492188 11.34375 23.664062 11.34375 17.40625 L 11.34375 -41.4375 C 11.34375 -42.65625 11.226562 -43.421875 11 -43.734375 C 10.769531 -44.046875 10.09375 -44.359375 8.96875 -44.671875 C 8.4375 -44.859375 7.640625 -45.128906 6.578125 -45.484375 C 5.523438 -45.847656 4.75 -46.070312 4.25 -46.15625 C 3.03125 -46.425781 2.34375 -47.28125 2.1875 -48.71875 C 2.03125 -50.164062 2.3125 -51.203125 3.03125 -51.828125 C 3.125 -52.015625 3.304688 -52.238281 3.578125 -52.5 L 18.96875 -61.75 C 19.769531 -62.382812 20.757812 -62.703125 21.9375 -62.703125 C 22.207031 -62.703125 22.5 -62.675781 22.8125 -62.625 C 24.289062 -62.445312 25.03125 -61.390625 25.03125 -59.453125 L 25.03125 -52.234375 C 25.03125 -51.066406 25.300781 -50.660156 25.84375 -51.015625 C 33.175781 -56.148438 39.117188 -58.71875 43.671875 -58.71875 C 43.710938 -58.71875 43.753906 -58.71875 43.796875 -58.71875 C 49.960938 -58.71875 55.304688 -55.859375 59.828125 -50.140625 C 64.347656 -44.429688 66.609375 -37.910156 66.609375 -30.578125 C 66.609375 -21.710938 63.457031 -13.9375 57.15625 -7.25 C 50.863281 -0.570312 43.507812 2.765625 35.09375 2.765625 C 32.613281 2.765625 29.625 2.25 26.125 1.21875 C 25.851562 1.125 25.601562 1.203125 25.375 1.453125 C 25.144531 1.703125 25.03125 2.09375 25.03125 2.625 L 25.03125 17.40625 C 25.03125 21.90625 25.210938 25.007812 25.578125 26.71875 C 25.941406 28.4375 26.535156 29.507812 27.359375 29.9375 C 28.191406 30.363281 29.757812 30.578125 32.0625 30.578125 L 34.015625 30.578125 C 36.035156 30.578125 37.273438 31.25 37.734375 32.59375 C 37.910156 33.132812 38 33.898438 38 34.890625 C 38 35.878906 37.863281 36.644531 37.59375 37.1875 C 37.050781 38.082031 35.992188 38.53125 34.421875 38.53125 C 32.304688 38.445312 22.203125 38.40625 4.109375 38.40625 C 2.804688 38.40625 1.882812 38 1.34375 37.1875 C 0.8125 36.425781 0.546875 35.613281 0.546875 34.75 C 0.546875 33.894531 0.8125 33 1.34375 32.0625 Z M 25.03125 -12.421875 C 29.625 -8.097656 34.21875 -5.9375 38.8125 -5.9375 C 42.675781 -5.9375 45.945312 -7.828125 48.625 -11.609375 C 51.300781 -15.390625 52.640625 -20.179688 52.640625 -25.984375 C 52.640625 -32.503906 51.144531 -37.773438 48.15625 -41.796875 C 45.164062 -45.828125 41.460938 -47.84375 37.046875 -47.84375 C 33.898438 -47.84375 30.03125 -46.046875 25.4375 -42.453125 C 25.164062 -42.179688 25.03125 -41.707031 25.03125 -41.03125 Z M 25.03125 -12.421875 "/></g></g></g></svg>