<svg xmlns="http://www.w3.org/2000/svg" xmlns:xlink="http://www.w3.org/1999/xlink" width="500" zoomAndPan="magnify" viewBox="0 0 375 74.999997" height="100" preserveAspectRatio="xMidYMid meet" version="1.0"><defs><g/></defs><g fill="#282828" fill-opacity="1"><g transform="translate(0.0234461, 53.779038)"><g><path d="M 0.640625 -28.015625 C 0.585938 -28.242188 0.5625 -28.457031 0.5625 -28.65625 C 0.5625 -29.125 0.671875 -29.5 0.890625 -29.78125 C 1.171875 -30.207031 1.617188 -30.375 2.234375 -30.28125 C 10.109375 -30.28125 14.550781 -30.304688 15.5625 -30.359375 C 16.300781 -30.359375 16.789062 -29.96875 17.03125 -29.1875 C 17.21875 -28.800781 17.226562 -28.316406 17.0625 -27.734375 C 16.894531 -27.160156 16.550781 -26.847656 16.03125 -26.796875 C 14.1875 -26.753906 13.265625 -26.460938 13.265625 -25.921875 C 13.265625 -25.390625 15.367188 -19.992188 19.578125 -9.734375 C 19.816406 -9.140625 20.082031 -9.140625 20.375 -9.734375 L 25.84375 -22.421875 C 25.007812 -24.085938 24.359375 -25.15625 23.890625 -25.625 C 23.148438 -26.3125 22.269531 -26.65625 21.25 -26.65625 C 20.96875 -26.707031 20.65625 -26.734375 20.3125 -26.734375 C 19.96875 -26.734375 19.675781 -26.921875 19.4375 -27.296875 C 19.207031 -27.679688 19.09375 -28.070312 19.09375 -28.46875 C 19.039062 -28.894531 19.109375 -29.316406 19.296875 -29.734375 C 19.484375 -30.148438 19.769531 -30.359375 20.15625 -30.359375 C 24.75 -30.234375 28.269531 -30.171875 30.71875 -30.171875 C 32.539062 -30.171875 33.757812 -30.207031 34.375 -30.28125 L 34.796875 -30.359375 C 34.890625 -30.359375 34.972656 -30.359375 35.046875 -30.359375 C 35.953125 -30.359375 36.460938 -29.859375 36.578125 -28.859375 C 36.597656 -28.671875 36.609375 -28.492188 36.609375 -28.328125 C 36.609375 -27.523438 36.375 -26.992188 35.90625 -26.734375 C 33.71875 -26.679688 32.625 -26.335938 32.625 -25.703125 C 32.625 -25.222656 32.957031 -24.179688 33.625 -22.578125 L 39.09375 -9.921875 C 39.289062 -9.328125 39.503906 -9.347656 39.734375 -9.984375 C 40.566406 -11.878906 41.445312 -13.96875 42.375 -16.25 C 44.3125 -20.820312 45.351562 -23.507812 45.5 -24.3125 C 45.644531 -25 45.582031 -25.519531 45.3125 -25.875 C 45.050781 -26.226562 44.738281 -26.445312 44.375 -26.53125 C 44.007812 -26.613281 43.457031 -26.679688 42.71875 -26.734375 L 41.0625 -26.734375 C 40.582031 -26.867188 40.328125 -27.503906 40.296875 -28.640625 C 40.273438 -29.785156 40.625 -30.359375 41.34375 -30.359375 C 43.050781 -30.304688 44.925781 -30.28125 46.96875 -30.28125 C 49.019531 -30.28125 51.242188 -30.304688 53.640625 -30.359375 C 53.734375 -30.378906 53.828125 -30.390625 53.921875 -30.390625 C 54.460938 -30.410156 54.832031 -30.160156 55.03125 -29.640625 C 55.164062 -29.304688 55.234375 -28.976562 55.234375 -28.65625 C 55.234375 -28.363281 55.1875 -28.078125 55.09375 -27.796875 C 54.90625 -27.128906 54.597656 -26.773438 54.171875 -26.734375 C 52.554688 -26.640625 51.515625 -26.269531 51.046875 -25.625 C 50.804688 -25.289062 50.34375 -24.296875 49.65625 -22.640625 C 46.882812 -16.191406 43.753906 -8.671875 40.265625 -0.078125 C 40.128906 0.304688 39.691406 0.546875 38.953125 0.640625 C 38.316406 0.734375 37.703125 0.707031 37.109375 0.5625 C 36.328125 0.519531 35.796875 0.191406 35.515625 -0.421875 L 28.609375 -16.890625 C 28.328125 -17.472656 28.082031 -17.539062 27.875 -17.09375 C 26.851562 -15.007812 25.484375 -11.90625 23.765625 -7.78125 C 22.046875 -3.65625 20.992188 -1.15625 20.609375 -0.28125 C 20.378906 0.351562 19.988281 0.71875 19.4375 0.8125 C 19.15625 0.90625 18.816406 0.953125 18.421875 0.953125 C 18.035156 0.953125 17.617188 0.90625 17.171875 0.8125 C 16.617188 0.675781 16.179688 0.238281 15.859375 -0.5 L 7.140625 -21.328125 C 6.078125 -23.796875 5.28125 -25.289062 4.75 -25.8125 C 4.21875 -26.332031 3.144531 -26.640625 1.53125 -26.734375 C 1.082031 -26.773438 0.785156 -27.203125 0.640625 -28.015625 Z M 0.640625 -28.015625 "/></g></g></g><g fill="#282828" fill-opacity="1"><g transform="translate(55.965435, 53.779038)"><g><path d="M 1.671875 -6.109375 C 1.671875 -9.898438 4.359375 -12.492188 9.734375 -13.890625 C 11.234375 -14.273438 13.40625 -15.109375 16.25 -16.390625 C 16.476562 -16.617188 16.59375 -16.832031 16.59375 -17.03125 L 16.53125 -21.46875 C 16.476562 -25.164062 15.160156 -27.015625 12.578125 -27.015625 C 11.941406 -27.015625 11.238281 -26.734375 10.46875 -26.171875 C 9.695312 -25.617188 9.3125 -25.09375 9.3125 -24.59375 C 9.3125 -23.863281 9.40625 -23.257812 9.59375 -22.78125 C 9.21875 -22.351562 8.425781 -21.84375 7.21875 -21.25 C 6.007812 -20.664062 5.175781 -20.300781 4.71875 -20.15625 C 4.269531 -20.007812 3.878906 -19.9375 3.546875 -19.9375 C 2.578125 -19.9375 2.09375 -20.585938 2.09375 -21.890625 C 2.09375 -23.742188 3.679688 -25.914062 6.859375 -28.40625 C 9.492188 -30.394531 11.863281 -31.390625 13.96875 -31.390625 C 15.582031 -31.390625 17.1875 -30.984375 18.78125 -30.171875 C 20.382812 -29.367188 21.625 -28.335938 22.5 -27.078125 C 23.132812 -26.203125 23.523438 -25.40625 23.671875 -24.6875 C 23.816406 -23.96875 23.890625 -22.476562 23.890625 -20.21875 L 23.890625 -7.578125 C 23.890625 -6.742188 23.921875 -6.128906 23.984375 -5.734375 C 24.054688 -5.347656 24.140625 -5.109375 24.234375 -5.015625 C 24.335938 -4.921875 24.484375 -4.875 24.671875 -4.875 C 25.453125 -4.875 26.28125 -5.238281 27.15625 -5.96875 C 27.488281 -6.207031 27.878906 -6.328125 28.328125 -6.328125 C 29.015625 -6.234375 29.429688 -5.851562 29.578125 -5.1875 C 29.617188 -4.945312 29.640625 -4.722656 29.640625 -4.515625 C 29.640625 -4.140625 29.554688 -3.796875 29.390625 -3.484375 C 26.097656 -0.566406 23.382812 0.890625 21.25 0.890625 C 19.03125 0.867188 17.625 -0.300781 17.03125 -2.625 L 17.03125 -2.5625 C 15.320312 -1.257812 13.960938 -0.359375 12.953125 0.140625 C 11.953125 0.640625 10.738281 0.890625 9.3125 0.890625 C 7.132812 0.890625 5.316406 0.234375 3.859375 -1.078125 C 2.398438 -2.398438 1.671875 -4.078125 1.671875 -6.109375 Z M 8.671875 -7 C 8.671875 -6.125 8.960938 -5.394531 9.546875 -4.8125 C 10.128906 -4.238281 10.878906 -3.953125 11.796875 -3.953125 C 12.390625 -3.953125 13.253906 -4.3125 14.390625 -5.03125 C 15.535156 -5.75 16.25 -6.40625 16.53125 -7 L 16.53125 -11.796875 C 16.53125 -11.941406 16.484375 -12.085938 16.390625 -12.234375 C 16.316406 -12.328125 16.242188 -12.375 16.171875 -12.375 L 16.109375 -12.375 C 15.421875 -12.039062 14.054688 -11.4375 12.015625 -10.5625 C 9.785156 -9.726562 8.671875 -8.539062 8.671875 -7 Z M 8.671875 -7 "/></g></g></g><g fill="#282828" fill-opacity="1"><g transform="translate(86.602027, 53.779038)"><g><path d="M 1.59375 -1.671875 C 1.59375 -2.140625 1.613281 -2.488281 1.65625 -2.71875 C 1.707031 -2.945312 1.859375 -3.140625 2.109375 -3.296875 C 2.359375 -3.460938 2.742188 -3.546875 3.265625 -3.546875 C 4.617188 -3.546875 5.503906 -3.878906 5.921875 -4.546875 C 6.335938 -5.210938 6.546875 -7.003906 6.546875 -9.921875 L 6.546875 -22.421875 C 6.546875 -23.109375 6.472656 -23.503906 6.328125 -23.609375 C 6.046875 -23.742188 5.488281 -23.953125 4.65625 -24.234375 C 3.820312 -24.523438 3.242188 -24.738281 2.921875 -24.875 C 2.328125 -25.164062 1.984375 -25.414062 1.890625 -25.625 C 1.835938 -25.71875 1.8125 -25.835938 1.8125 -25.984375 L 1.8125 -27.015625 C 1.8125 -27.742188 2.15625 -28.226562 2.84375 -28.46875 C 3.625 -28.851562 4.363281 -29.179688 5.0625 -29.453125 C 5.757812 -29.722656 6.710938 -30.046875 7.921875 -30.421875 C 9.128906 -30.804688 10.222656 -31.195312 11.203125 -31.59375 C 11.523438 -31.71875 11.816406 -31.78125 12.078125 -31.78125 C 12.410156 -31.78125 12.695312 -31.6875 12.9375 -31.5 C 13.363281 -31.164062 13.566406 -30.710938 13.546875 -30.140625 C 13.585938 -29.453125 13.609375 -28.066406 13.609375 -25.984375 C 13.660156 -26.035156 13.859375 -26.5 14.203125 -27.375 C 14.546875 -28.25 14.859375 -28.941406 15.140625 -29.453125 C 15.421875 -29.960938 15.742188 -30.3125 16.109375 -30.5 C 16.796875 -30.832031 17.488281 -31.007812 18.1875 -31.03125 C 18.882812 -31.050781 19.472656 -30.988281 19.953125 -30.84375 C 20.441406 -30.707031 21.070312 -30.507812 21.84375 -30.25 C 22.613281 -29.988281 23.25 -29.8125 23.75 -29.71875 L 24.390625 -29.46875 C 25.191406 -29.207031 25.59375 -28.789062 25.59375 -28.21875 C 25.59375 -28.050781 25.554688 -27.882812 25.484375 -27.71875 C 25.035156 -26.414062 24.253906 -24.75 23.140625 -22.71875 C 22.078125 -22.8125 20.960938 -23.15625 19.796875 -23.75 C 18.828125 -24.21875 18.101562 -24.453125 17.625 -24.453125 C 16.46875 -24.453125 15.175781 -23.171875 13.75 -20.609375 L 13.75 -10.421875 C 13.75 -9.992188 13.757812 -9.457031 13.78125 -8.8125 C 13.8125 -8.175781 13.828125 -7.550781 13.828125 -6.9375 C 13.921875 -5.320312 14.113281 -4.363281 14.40625 -4.0625 C 14.707031 -3.769531 15.628906 -3.625 17.171875 -3.625 L 18.703125 -3.625 C 19.523438 -3.625 19.992188 -3.113281 20.109375 -2.09375 C 20.234375 -1.070312 20.054688 -0.375 19.578125 0 C 19.390625 0.144531 19.070312 0.21875 18.625 0.21875 C 17.507812 0.21875 15.910156 0.191406 13.828125 0.140625 C 11.742188 0.0976562 9.84375 0.078125 8.125 0.078125 C 6.40625 0.078125 4.765625 0.125 3.203125 0.21875 C 3.128906 0.21875 3.054688 0.21875 2.984375 0.21875 C 2.410156 0.21875 2.046875 0.0507812 1.890625 -0.28125 C 1.691406 -0.664062 1.59375 -1.128906 1.59375 -1.671875 Z M 1.59375 -1.671875 "/></g></g></g><g fill="#282828" fill-opacity="1"><g transform="translate(113.009211, 53.779038)"><g><path d="M 0.703125 16.890625 C 0.941406 16.503906 1.429688 16.3125 2.171875 16.3125 C 3.828125 16.3125 4.875 15.941406 5.3125 15.203125 C 5.75 14.472656 5.96875 12.460938 5.96875 9.171875 L 5.96875 -21.828125 C 5.96875 -22.460938 5.90625 -22.863281 5.78125 -23.03125 C 5.664062 -23.195312 5.316406 -23.363281 4.734375 -23.53125 C 4.441406 -23.625 4.015625 -23.765625 3.453125 -23.953125 C 2.898438 -24.140625 2.492188 -24.257812 2.234375 -24.3125 C 1.597656 -24.457031 1.238281 -24.90625 1.15625 -25.65625 C 1.070312 -26.414062 1.21875 -26.960938 1.59375 -27.296875 C 1.644531 -27.390625 1.742188 -27.507812 1.890625 -27.65625 L 9.984375 -32.53125 C 10.410156 -32.851562 10.929688 -33.015625 11.546875 -33.015625 C 11.691406 -33.015625 11.847656 -33.003906 12.015625 -32.984375 C 12.796875 -32.890625 13.1875 -32.332031 13.1875 -31.3125 L 13.1875 -27.515625 C 13.1875 -26.898438 13.328125 -26.6875 13.609375 -26.875 C 17.472656 -29.570312 20.601562 -30.921875 23 -30.921875 C 23.019531 -30.921875 23.039062 -30.921875 23.0625 -30.921875 C 26.3125 -30.921875 29.125 -29.414062 31.5 -26.40625 C 33.882812 -23.394531 35.078125 -19.960938 35.078125 -16.109375 C 35.078125 -11.429688 33.414062 -7.332031 30.09375 -3.8125 C 26.78125 -0.300781 22.910156 1.453125 18.484375 1.453125 C 17.179688 1.453125 15.601562 1.179688 13.75 0.640625 C 13.613281 0.585938 13.484375 0.625 13.359375 0.75 C 13.242188 0.882812 13.1875 1.097656 13.1875 1.390625 L 13.1875 9.171875 C 13.1875 11.535156 13.28125 13.164062 13.46875 14.0625 C 13.65625 14.96875 13.96875 15.535156 14.40625 15.765625 C 14.851562 15.992188 15.679688 16.109375 16.890625 16.109375 L 17.921875 16.109375 C 18.984375 16.109375 19.632812 16.460938 19.875 17.171875 C 19.96875 17.453125 20.015625 17.851562 20.015625 18.375 C 20.015625 18.894531 19.941406 19.296875 19.796875 19.578125 C 19.515625 20.054688 18.957031 20.296875 18.125 20.296875 C 17.007812 20.242188 11.691406 20.21875 2.171875 20.21875 C 1.484375 20.21875 0.992188 20.003906 0.703125 19.578125 C 0.421875 19.179688 0.28125 18.753906 0.28125 18.296875 C 0.28125 17.847656 0.421875 17.378906 0.703125 16.890625 Z M 13.1875 -6.546875 C 15.601562 -4.265625 18.019531 -3.125 20.4375 -3.125 C 22.476562 -3.125 24.203125 -4.117188 25.609375 -6.109375 C 27.015625 -8.097656 27.71875 -10.625 27.71875 -13.6875 C 27.71875 -17.125 26.929688 -19.898438 25.359375 -22.015625 C 23.785156 -24.140625 21.835938 -25.203125 19.515625 -25.203125 C 17.859375 -25.203125 15.820312 -24.253906 13.40625 -22.359375 C 13.257812 -22.210938 13.1875 -21.960938 13.1875 -21.609375 Z M 13.1875 -6.546875 "/></g></g></g><g fill="#282828" fill-opacity="1"><g transform="translate(149.829986, 53.779038)"><g/></g></g><g fill="#282828" fill-opacity="1"><g transform="translate(167.636178, 53.779038)"><g><path d="M 2.5625 -11.9375 C 2.5625 -15.820312 4.113281 -19.070312 7.21875 -21.6875 C 8.613281 -22.894531 11.066406 -24.28125 14.578125 -25.84375 C 14.765625 -26.03125 14.8125 -26.171875 14.71875 -26.265625 C 11.800781 -29.085938 10.34375 -32.097656 10.34375 -35.296875 C 10.34375 -38.210938 11.40625 -40.554688 13.53125 -42.328125 C 15.664062 -44.109375 18.40625 -45 21.75 -45 C 24.757812 -45 27.296875 -44.234375 29.359375 -42.703125 C 31.421875 -41.179688 32.453125 -39.175781 32.453125 -36.6875 C 32.453125 -33.195312 30.175781 -30.140625 25.625 -27.515625 C 25.25 -27.273438 25.226562 -27.035156 25.5625 -26.796875 C 26.863281 -25.773438 28.507812 -24.316406 30.5 -22.421875 C 32.488281 -20.578125 34.160156 -18.679688 35.515625 -16.734375 C 35.703125 -16.410156 35.945312 -16.410156 36.25 -16.734375 C 37.695312 -18.628906 39.109375 -20.578125 40.484375 -22.578125 C 41.972656 -24.898438 43.0625 -27.03125 43.75 -28.96875 C 43.851562 -29.445312 43.851562 -29.695312 43.75 -29.71875 C 43.65625 -29.757812 43.492188 -29.789062 43.265625 -29.8125 C 43.046875 -29.84375 42.890625 -29.859375 42.796875 -29.859375 C 42.460938 -29.898438 42.003906 -29.945312 41.421875 -30 C 40.847656 -30.050781 40.488281 -30.078125 40.34375 -30.078125 C 39.507812 -30.453125 39.238281 -31.269531 39.53125 -32.53125 C 39.664062 -33.164062 40.125 -33.484375 40.90625 -33.484375 L 41.203125 -33.484375 C 45.515625 -33.390625 49.660156 -33.414062 53.640625 -33.5625 C 54.015625 -33.65625 54.375 -33.582031 54.71875 -33.34375 C 55.0625 -33.101562 55.257812 -32.757812 55.3125 -32.3125 L 55.3125 -31.390625 C 55.3125 -30.515625 54.753906 -30.023438 53.640625 -29.921875 C 53.492188 -29.921875 52.96875 -29.882812 52.0625 -29.8125 C 51.164062 -29.75 50.4375 -29.640625 49.875 -29.484375 C 49.320312 -29.328125 48.882812 -29.082031 48.5625 -28.75 C 48.007812 -28.207031 47.128906 -26.867188 45.921875 -24.734375 C 45.585938 -24.097656 45.191406 -23.320312 44.734375 -22.40625 C 44.273438 -21.5 44 -20.972656 43.90625 -20.828125 C 42.40625 -18.203125 40.625 -15.726562 38.5625 -13.40625 C 38.28125 -13.019531 38.1875 -12.742188 38.28125 -12.578125 C 38.613281 -12.109375 39.039062 -11.410156 39.5625 -10.484375 C 40.082031 -9.554688 40.4375 -8.953125 40.625 -8.671875 C 41.832031 -6.441406 42.757812 -5.003906 43.40625 -4.359375 C 44.0625 -3.722656 44.78125 -3.40625 45.5625 -3.40625 C 46.675781 -3.40625 48.523438 -4.285156 51.109375 -6.046875 C 51.585938 -6.140625 52.066406 -5.96875 52.546875 -5.53125 C 53.035156 -5.09375 53.300781 -4.601562 53.34375 -4.0625 C 53.394531 -3.53125 53.234375 -3.125 52.859375 -2.84375 C 49.253906 -0.0195312 45.925781 1.390625 42.875 1.390625 C 42.226562 1.390625 41.628906 1.351562 41.078125 1.28125 C 40.535156 1.207031 40.007812 1.054688 39.5 0.828125 C 39 0.609375 38.578125 0.425781 38.234375 0.28125 C 37.890625 0.144531 37.507812 -0.140625 37.09375 -0.578125 C 36.675781 -1.023438 36.359375 -1.328125 36.140625 -1.484375 C 35.929688 -1.648438 35.628906 -2.035156 35.234375 -2.640625 C 34.847656 -3.242188 34.609375 -3.632812 34.515625 -3.8125 C 34.421875 -4 34.164062 -4.460938 33.75 -5.203125 C 33.332031 -5.953125 33.078125 -6.398438 32.984375 -6.546875 L 32.53125 -6.859375 C 26.882812 -1.390625 21.382812 1.359375 16.03125 1.390625 C 12.289062 1.390625 9.109375 0.101562 6.484375 -2.46875 C 3.867188 -5.039062 2.5625 -8.195312 2.5625 -11.9375 Z M 11.203125 -12.796875 C 11.203125 -10.328125 11.914062 -8.363281 13.34375 -6.90625 C 14.78125 -5.457031 16.671875 -4.734375 19.015625 -4.734375 C 20.816406 -4.734375 22.742188 -5.191406 24.796875 -6.109375 C 26.847656 -7.035156 28.65625 -8.269531 30.21875 -9.8125 C 30.644531 -10.257812 30.710938 -10.578125 30.421875 -10.765625 C 27.035156 -15.859375 22.9375 -20.007812 18.125 -23.21875 C 18.082031 -23.257812 17.914062 -23.160156 17.625 -22.921875 C 15.300781 -21.222656 13.648438 -19.582031 12.671875 -18 C 11.691406 -16.425781 11.203125 -14.691406 11.203125 -12.796875 Z M 17.5625 -37.109375 C 17.5625 -34.523438 18.9375 -32.109375 21.6875 -29.859375 C 21.820312 -29.710938 22.019531 -29.710938 22.28125 -29.859375 C 24.46875 -31.347656 25.5625 -33.429688 25.5625 -36.109375 C 25.5625 -37.722656 25.171875 -38.972656 24.390625 -39.859375 C 23.609375 -40.753906 22.5625 -41.203125 21.25 -41.203125 C 18.789062 -41.203125 17.5625 -39.835938 17.5625 -37.109375 Z M 17.5625 -37.109375 "/></g></g></g><g fill="#282828" fill-opacity="1"><g transform="translate(223.151672, 53.779038)"><g/></g></g><g fill="#282828" fill-opacity="1"><g transform="translate(240.957864, 53.779038)"><g><path d="M 0.640625 -28.015625 C 0.585938 -28.242188 0.5625 -28.457031 0.5625 -28.65625 C 0.5625 -29.125 0.671875 -29.5 0.890625 -29.78125 C 1.171875 -30.207031 1.617188 -30.375 2.234375 -30.28125 C 10.109375 -30.28125 14.550781 -30.304688 15.5625 -30.359375 C 16.300781 -30.359375 16.789062 -29.96875 17.03125 -29.1875 C 17.21875 -28.800781 17.226562 -28.316406 17.0625 -27.734375 C 16.894531 -27.160156 16.550781 -26.847656 16.03125 -26.796875 C 14.1875 -26.753906 13.265625 -26.460938 13.265625 -25.921875 C 13.265625 -25.390625 15.367188 -19.992188 19.578125 -9.734375 C 19.816406 -9.140625 20.082031 -9.140625 20.375 -9.734375 L 25.84375 -22.421875 C 25.007812 -24.085938 24.359375 -25.15625 23.890625 -25.625 C 23.148438 -26.3125 22.269531 -26.65625 21.25 -26.65625 C 20.96875 -26.707031 20.65625 -26.734375 20.3125 -26.734375 C 19.96875 -26.734375 19.675781 -26.921875 19.4375 -27.296875 C 19.207031 -27.679688 19.09375 -28.070312 19.09375 -28.46875 C 19.039062 -28.894531 19.109375 -29.316406 19.296875 -29.734375 C 19.484375 -30.148438 19.769531 -30.359375 20.15625 -30.359375 C 24.75 -30.234375 28.269531 -30.171875 30.71875 -30.171875 C 32.539062 -30.171875 33.757812 -30.207031 34.375 -30.28125 L 34.796875 -30.359375 C 34.890625 -30.359375 34.972656 -30.359375 35.046875 -30.359375 C 35.953125 -30.359375 36.460938 -29.859375 36.578125 -28.859375 C 36.597656 -28.671875 36.609375 -28.492188 36.609375 -28.328125 C 36.609375 -27.523438 36.375 -26.992188 35.90625 -26.734375 C 33.71875 -26.679688 32.625 -26.335938 32.625 -25.703125 C 32.625 -25.222656 32.957031 -24.179688 33.625 -22.578125 L 39.09375 -9.921875 C 39.289062 -9.328125 39.503906 -9.347656 39.734375 -9.984375 C 40.566406 -11.878906 41.445312 -13.96875 42.375 -16.25 C 44.3125 -20.820312 45.351562 -23.507812 45.5 -24.3125 C 45.644531 -25 45.582031 -25.519531 45.3125 -25.875 C 45.050781 -26.226562 44.738281 -26.445312 44.375 -26.53125 C 44.007812 -26.613281 43.457031 -26.679688 42.71875 -26.734375 L 41.0625 -26.734375 C 40.582031 -26.867188 40.328125 -27.503906 40.296875 -28.640625 C 40.273438 -29.785156 40.625 -30.359375 41.34375 -30.359375 C 43.050781 -30.304688 44.925781 -30.28125 46.96875 -30.28125 C 49.019531 -30.28125 51.242188 -30.304688 53.640625 -30.359375 C 53.734375 -30.378906 53.828125 -30.390625 53.921875 -30.390625 C 54.460938 -30.410156 54.832031 -30.160156 55.03125 -29.640625 C 55.164062 -29.304688 55.234375 -28.976562 55.234375 -28.65625 C 55.234375 -28.363281 55.1875 -28.078125 55.09375 -27.796875 C 54.90625 -27.128906 54.597656 -26.773438 54.171875 -26.734375 C 52.554688 -26.640625 51.515625 -26.269531 51.046875 -25.625 C 50.804688 -25.289062 50.34375 -24.296875 49.65625 -22.640625 C 46.882812 -16.191406 43.753906 -8.671875 40.265625 -0.078125 C 40.128906 0.304688 39.691406 0.546875 38.953125 0.640625 C 38.316406 0.734375 37.703125 0.707031 37.109375 0.5625 C 36.328125 0.519531 35.796875 0.191406 35.515625 -0.421875 L 28.609375 -16.890625 C 28.328125 -17.472656 28.082031 -17.539062 27.875 -17.09375 C 26.851562 -15.007812 25.484375 -11.90625 23.765625 -7.78125 C 22.046875 -3.65625 20.992188 -1.15625 20.609375 -0.28125 C 20.378906 0.351562 19.988281 0.71875 19.4375 0.8125 C 19.15625 0.90625 18.816406 0.953125 18.421875 0.953125 C 18.035156 0.953125 17.617188 0.90625 17.171875 0.8125 C 16.617188 0.675781 16.179688 0.238281 15.859375 -0.5 L 7.140625 -21.328125 C 6.078125 -23.796875 5.28125 -25.289062 4.75 -25.8125 C 4.21875 -26.332031 3.144531 -26.640625 1.53125 -26.734375 C 1.082031 -26.773438 0.785156 -27.203125 0.640625 -28.015625 Z M 0.640625 -28.015625 "/></g></g></g><g fill="#282828" fill-opacity="1"><g transform="translate(296.899865, 53.779038)"><g><path d="M 1.53125 -14.71875 C 1.53125 -19.4375 2.984375 -23.367188 5.890625 -26.515625 C 8.804688 -29.671875 12.472656 -31.25 16.890625 -31.25 C 22.078125 -31.25 25.6875 -29.054688 27.71875 -24.671875 C 28.5 -23.109375 29.164062 -21.992188 29.71875 -21.328125 C 29.882812 -20.992188 29.96875 -20.660156 29.96875 -20.328125 C 29.96875 -20.046875 29.90625 -19.765625 29.78125 -19.484375 C 29.550781 -18.859375 29.019531 -18.523438 28.1875 -18.484375 C 26.40625 -18.410156 23.960938 -18.375 20.859375 -18.375 C 17.753906 -18.375 14 -18.410156 9.59375 -18.484375 C 8.90625 -18.484375 8.578125 -17.804688 8.609375 -16.453125 C 8.609375 -13.066406 9.523438 -10.273438 11.359375 -8.078125 C 13.191406 -5.890625 15.492188 -4.796875 18.265625 -4.796875 C 21.328125 -4.796875 24.066406 -6.207031 26.484375 -9.03125 C 26.953125 -9.570312 27.566406 -9.757812 28.328125 -9.59375 C 28.804688 -9.5 29.191406 -9.160156 29.484375 -8.578125 C 29.773438 -8.003906 29.769531 -7.476562 29.46875 -7 C 24.65625 -1.625 19.972656 1.078125 15.421875 1.109375 C 11.441406 1.109375 8.128906 -0.429688 5.484375 -3.515625 C 2.847656 -6.597656 1.53125 -10.332031 1.53125 -14.71875 Z M 9.453125 -22.421875 C 9.546875 -22.285156 9.867188 -22.21875 10.421875 -22.21875 L 20.21875 -22.21875 C 20.476562 -22.21875 20.707031 -22.265625 20.90625 -22.359375 C 21.039062 -22.429688 21.109375 -22.523438 21.109375 -22.640625 C 21.109375 -25.929688 19.164062 -27.578125 15.28125 -27.578125 C 12.769531 -27.578125 10.828125 -25.859375 9.453125 -22.421875 Z M 9.453125 -22.421875 "/></g></g></g><g fill="#282828" fill-opacity="1"><g transform="translate(327.962963, 53.779038)"><g><path d="M 1.453125 -25.984375 C 1.316406 -26.453125 1.25 -26.867188 1.25 -27.234375 C 1.25 -27.921875 1.484375 -28.425781 1.953125 -28.75 C 5.015625 -29.632812 6.613281 -30.265625 6.75 -30.640625 C 6.800781 -30.785156 6.835938 -31.035156 6.859375 -31.390625 C 6.859375 -31.578125 6.867188 -31.925781 6.890625 -32.4375 C 6.921875 -32.945312 6.9375 -33.414062 6.9375 -33.84375 C 7.070312 -36.757812 7.5 -39.164062 8.21875 -41.0625 C 8.945312 -42.957031 10.257812 -44.945312 12.15625 -47.03125 C 15.800781 -50.957031 19.710938 -52.921875 23.890625 -52.921875 C 25.285156 -52.921875 26.828125 -52.617188 28.515625 -52.015625 C 30.210938 -51.410156 31.453125 -50.550781 32.234375 -49.4375 C 32.429688 -49.113281 32.53125 -48.703125 32.53125 -48.203125 C 32.53125 -47.535156 32.019531 -46.421875 31 -44.859375 C 30.519531 -44.078125 29.925781 -43.6875 29.21875 -43.6875 C 28.582031 -43.6875 27.847656 -44.019531 27.015625 -44.6875 C 24.929688 -46.4375 22.820312 -47.3125 20.6875 -47.3125 C 19.425781 -47.3125 18.28125 -46.9375 17.25 -46.1875 C 16.226562 -45.445312 15.476562 -44.4375 15 -43.15625 C 14.363281 -41.375 14.046875 -39.285156 14.046875 -36.890625 C 14.046875 -36.722656 14.046875 -36.5625 14.046875 -36.40625 L 14.109375 -31.8125 C 14.109375 -31.175781 14.265625 -30.859375 14.578125 -30.859375 L 19.515625 -30.859375 C 20.484375 -30.859375 21.039062 -30.617188 21.1875 -30.140625 L 21.328125 -29.859375 L 21.828125 -26.265625 C 21.734375 -25.722656 21.578125 -25.367188 21.359375 -25.203125 C 21.148438 -25.035156 20.75 -24.953125 20.15625 -24.953125 L 14.25 -25.0625 C 14.15625 -25.0625 14.109375 -24.765625 14.109375 -24.171875 L 14.109375 -9.8125 C 14.109375 -6.894531 14.3125 -5.175781 14.71875 -4.65625 C 14.957031 -4.320312 15.488281 -4.097656 16.3125 -3.984375 C 16.882812 -3.890625 17.429688 -3.84375 17.953125 -3.84375 C 18.210938 -3.84375 18.460938 -3.84375 18.703125 -3.84375 C 19.429688 -3.914062 20.066406 -3.925781 20.609375 -3.875 C 21.585938 -3.820312 22.125 -3.085938 22.21875 -1.671875 C 22.21875 -1.242188 22.078125 -0.820312 21.796875 -0.40625 C 21.523438 0.0078125 21.203125 0.21875 20.828125 0.21875 C 17.222656 0.09375 13.925781 0.03125 10.9375 0.03125 C 7.957031 0.03125 5.304688 0.09375 2.984375 0.21875 C 2.941406 0.21875 2.894531 0.21875 2.84375 0.21875 C 2.488281 0.21875 2.203125 0.0234375 1.984375 -0.359375 C 1.722656 -0.753906 1.59375 -1.191406 1.59375 -1.671875 C 1.59375 -2.003906 1.664062 -2.367188 1.8125 -2.765625 C 2.125 -3.390625 2.738281 -3.703125 3.65625 -3.703125 C 3.707031 -3.703125 3.742188 -3.703125 3.765625 -3.703125 C 5.117188 -3.703125 5.953125 -4.03125 6.265625 -4.6875 C 6.585938 -5.351562 6.75 -7.144531 6.75 -10.0625 L 6.75 -24.53125 C 6.75 -24.8125 6.609375 -25.035156 6.328125 -25.203125 L 2.984375 -25.203125 C 2.109375 -25.203125 1.597656 -25.460938 1.453125 -25.984375 Z M 1.453125 -25.984375 "/></g></g></g><g fill="#282828" fill-opacity="1"><g transform="translate(351.526854, 53.779038)"><g><path d="M 1.453125 -28.328125 C 1.691406 -28.753906 2.015625 -29.039062 2.421875 -29.1875 C 4.742188 -30.34375 6.753906 -33.253906 8.453125 -37.921875 C 8.597656 -38.660156 9.203125 -39.03125 10.265625 -39.03125 C 11.285156 -39.03125 11.796875 -38.625 11.796875 -37.8125 L 11.6875 -33.984375 C 11.6875 -32.910156 11.722656 -32.019531 11.796875 -31.3125 C 11.796875 -31.269531 11.84375 -31.234375 11.9375 -31.203125 C 12.03125 -31.179688 12.125 -31.148438 12.21875 -31.109375 C 12.320312 -31.078125 12.394531 -31.0625 12.4375 -31.0625 L 19.515625 -31.0625 C 19.984375 -31.0625 20.410156 -30.894531 20.796875 -30.5625 C 21.191406 -30.238281 21.296875 -29.734375 21.109375 -29.046875 C 20.921875 -28.160156 20.675781 -27.34375 20.375 -26.59375 C 20.039062 -25.945312 19.429688 -25.625 18.546875 -25.625 L 12.515625 -25.765625 C 12.035156 -25.765625 11.796875 -25.375 11.796875 -24.59375 L 11.796875 -13.265625 C 11.796875 -9.703125 12.0625 -7.390625 12.59375 -6.328125 C 13.132812 -5.265625 14.054688 -4.734375 15.359375 -4.734375 C 16.566406 -4.734375 17.75 -5.820312 18.90625 -8 C 19.238281 -8.59375 19.710938 -8.851562 20.328125 -8.78125 C 20.941406 -8.707031 21.414062 -8.492188 21.75 -8.140625 C 22.007812 -7.804688 22.140625 -7.425781 22.140625 -7 C 22.140625 -6.71875 22.082031 -6.398438 21.96875 -6.046875 C 19.957031 -1.472656 17.003906 0.8125 13.109375 0.8125 C 10.648438 0.8125 8.648438 -0.0820312 7.109375 -1.875 C 5.566406 -3.675781 4.796875 -5.96875 4.796875 -8.75 L 4.796875 -24.671875 C 4.796875 -25.265625 4.675781 -25.582031 4.4375 -25.625 C 3.894531 -25.675781 3.046875 -25.769531 1.890625 -25.90625 C 1.503906 -26.550781 1.3125 -27.125 1.3125 -27.625 C 1.3125 -27.882812 1.359375 -28.117188 1.453125 -28.328125 Z M 1.453125 -28.328125 "/></g></g></g></svg>