<svg xmlns="http://www.w3.org/2000/svg" xmlns:xlink="http://www.w3.org/1999/xlink" width="500" zoomAndPan="magnify" viewBox="0 0 375 149.999998" height="200" preserveAspectRatio="xMidYMid meet" version="1.0"><defs><g/></defs><g fill="#282828" fill-opacity="1"><g transform="translate(39.290977, 63.07226)"><g><path d="M 0.84375 -37.203125 C 0.78125 -37.515625 0.75 -37.796875 0.75 -38.046875 C 0.75 -38.679688 0.894531 -39.1875 1.1875 -39.5625 C 1.5625 -40.125 2.15625 -40.34375 2.96875 -40.21875 C 13.414062 -40.21875 19.316406 -40.25 20.671875 -40.3125 C 21.648438 -40.3125 22.296875 -39.796875 22.609375 -38.765625 C 22.859375 -38.253906 22.875 -37.613281 22.65625 -36.84375 C 22.4375 -36.070312 21.984375 -35.65625 21.296875 -35.59375 C 18.835938 -35.53125 17.609375 -35.144531 17.609375 -34.4375 C 17.609375 -33.726562 20.410156 -26.5625 26.015625 -12.9375 C 26.328125 -12.144531 26.671875 -12.144531 27.046875 -12.9375 L 34.328125 -29.796875 C 33.222656 -31.992188 32.351562 -33.40625 31.71875 -34.03125 C 30.75 -34.945312 29.585938 -35.40625 28.234375 -35.40625 C 27.859375 -35.46875 27.441406 -35.5 26.984375 -35.5 C 26.523438 -35.5 26.140625 -35.75 25.828125 -36.25 C 25.515625 -36.757812 25.359375 -37.28125 25.359375 -37.8125 C 25.285156 -38.382812 25.375 -38.941406 25.625 -39.484375 C 25.882812 -40.035156 26.265625 -40.3125 26.765625 -40.3125 C 32.867188 -40.15625 37.546875 -40.078125 40.796875 -40.078125 C 43.210938 -40.078125 44.832031 -40.125 45.65625 -40.21875 L 46.21875 -40.3125 C 46.34375 -40.3125 46.453125 -40.3125 46.546875 -40.3125 C 47.742188 -40.3125 48.421875 -39.648438 48.578125 -38.328125 C 48.609375 -38.078125 48.625 -37.84375 48.625 -37.625 C 48.625 -36.550781 48.3125 -35.84375 47.6875 -35.5 C 44.789062 -35.4375 43.34375 -34.984375 43.34375 -34.140625 C 43.34375 -33.503906 43.78125 -32.117188 44.65625 -29.984375 L 51.9375 -13.171875 C 52.1875 -12.378906 52.46875 -12.410156 52.78125 -13.265625 C 53.882812 -15.785156 55.050781 -18.554688 56.28125 -21.578125 C 58.851562 -27.648438 60.238281 -31.222656 60.4375 -32.296875 C 60.625 -33.203125 60.539062 -33.890625 60.1875 -34.359375 C 59.84375 -34.835938 59.425781 -35.128906 58.9375 -35.234375 C 58.445312 -35.347656 57.71875 -35.4375 56.75 -35.5 L 54.53125 -35.5 C 53.894531 -35.6875 53.5625 -36.535156 53.53125 -38.046875 C 53.5 -39.554688 53.957031 -40.3125 54.90625 -40.3125 C 57.175781 -40.25 59.671875 -40.21875 62.390625 -40.21875 C 65.109375 -40.21875 68.054688 -40.25 71.234375 -40.3125 C 71.367188 -40.34375 71.5 -40.359375 71.625 -40.359375 C 72.34375 -40.390625 72.828125 -40.0625 73.078125 -39.375 C 73.265625 -38.9375 73.359375 -38.492188 73.359375 -38.046875 C 73.359375 -37.671875 73.296875 -37.296875 73.171875 -36.921875 C 72.921875 -36.035156 72.515625 -35.5625 71.953125 -35.5 C 69.804688 -35.375 68.421875 -34.882812 67.796875 -34.03125 C 67.484375 -33.59375 66.867188 -32.273438 65.953125 -30.078125 C 62.273438 -21.515625 58.117188 -11.519531 53.484375 -0.09375 C 53.296875 0.40625 52.71875 0.71875 51.75 0.84375 C 50.894531 0.96875 50.070312 0.9375 49.28125 0.75 C 48.25 0.6875 47.539062 0.25 47.15625 -0.5625 L 38 -22.421875 C 37.625 -23.210938 37.296875 -23.304688 37.015625 -22.703125 C 35.660156 -19.929688 33.84375 -15.804688 31.5625 -10.328125 C 29.28125 -4.859375 27.882812 -1.539062 27.375 -0.375 C 27.0625 0.46875 26.546875 0.953125 25.828125 1.078125 C 25.441406 1.210938 24.988281 1.28125 24.46875 1.28125 C 23.957031 1.28125 23.398438 1.210938 22.796875 1.078125 C 22.078125 0.890625 21.5 0.3125 21.0625 -0.65625 L 9.484375 -28.328125 C 8.066406 -31.597656 7.003906 -33.578125 6.296875 -34.265625 C 5.585938 -34.960938 4.164062 -35.375 2.03125 -35.5 C 1.4375 -35.5625 1.039062 -36.128906 0.84375 -37.203125 Z M 0.84375 -37.203125 "/></g></g></g><g fill="#282828" fill-opacity="1"><g transform="translate(113.604841, 63.07226)"><g><path d="M 2.21875 -8.125 C 2.21875 -13.15625 5.789062 -16.597656 12.9375 -18.453125 C 14.914062 -18.960938 17.796875 -20.066406 21.578125 -21.765625 C 21.890625 -22.078125 22.046875 -22.359375 22.046875 -22.609375 L 21.953125 -28.515625 C 21.890625 -33.421875 20.144531 -35.875 16.71875 -35.875 C 15.863281 -35.875 14.925781 -35.503906 13.90625 -34.765625 C 12.882812 -34.023438 12.375 -33.328125 12.375 -32.671875 C 12.375 -31.691406 12.5 -30.890625 12.75 -30.265625 C 12.238281 -29.691406 11.179688 -29.007812 9.578125 -28.21875 C 7.972656 -27.4375 6.867188 -26.953125 6.265625 -26.765625 C 5.671875 -26.578125 5.15625 -26.484375 4.71875 -26.484375 C 3.425781 -26.484375 2.78125 -27.347656 2.78125 -29.078125 C 2.78125 -31.535156 4.890625 -34.414062 9.109375 -37.71875 C 12.609375 -40.363281 15.753906 -41.6875 18.546875 -41.6875 C 20.691406 -41.6875 22.828125 -41.148438 24.953125 -40.078125 C 27.078125 -39.015625 28.722656 -37.644531 29.890625 -35.96875 C 30.734375 -34.8125 31.25 -33.75 31.4375 -32.78125 C 31.625 -31.820312 31.71875 -29.847656 31.71875 -26.859375 L 31.71875 -10.0625 C 31.71875 -8.957031 31.765625 -8.144531 31.859375 -7.625 C 31.960938 -7.101562 32.078125 -6.78125 32.203125 -6.65625 C 32.328125 -6.53125 32.515625 -6.46875 32.765625 -6.46875 C 33.804688 -6.46875 34.90625 -6.957031 36.0625 -7.9375 C 36.507812 -8.25 37.03125 -8.40625 37.625 -8.40625 C 38.539062 -8.28125 39.09375 -7.773438 39.28125 -6.890625 C 39.34375 -6.578125 39.375 -6.28125 39.375 -6 C 39.375 -5.488281 39.265625 -5.03125 39.046875 -4.625 C 34.671875 -0.75 31.066406 1.1875 28.234375 1.1875 C 25.273438 1.15625 23.398438 -0.40625 22.609375 -3.5 L 22.609375 -3.40625 C 20.347656 -1.664062 18.546875 -0.46875 17.203125 0.1875 C 15.867188 0.851562 14.257812 1.1875 12.375 1.1875 C 9.476562 1.1875 7.0625 0.3125 5.125 -1.4375 C 3.1875 -3.1875 2.21875 -5.414062 2.21875 -8.125 Z M 11.515625 -9.296875 C 11.515625 -8.128906 11.898438 -7.160156 12.671875 -6.390625 C 13.441406 -5.617188 14.441406 -5.234375 15.671875 -5.234375 C 16.460938 -5.234375 17.613281 -5.710938 19.125 -6.671875 C 20.632812 -7.640625 21.578125 -8.515625 21.953125 -9.296875 L 21.953125 -15.671875 C 21.953125 -15.859375 21.890625 -16.046875 21.765625 -16.234375 C 21.671875 -16.359375 21.578125 -16.421875 21.484375 -16.421875 L 21.390625 -16.421875 C 20.472656 -15.984375 18.660156 -15.179688 15.953125 -14.015625 C 12.992188 -12.921875 11.515625 -11.347656 11.515625 -9.296875 Z M 11.515625 -9.296875 "/></g></g></g><g fill="#282828" fill-opacity="1"><g transform="translate(154.302777, 63.07226)"><g><path d="M 2.125 -2.21875 C 2.125 -2.84375 2.15625 -3.304688 2.21875 -3.609375 C 2.28125 -3.910156 2.476562 -4.171875 2.8125 -4.390625 C 3.144531 -4.609375 3.65625 -4.71875 4.34375 -4.71875 C 6.132812 -4.71875 7.304688 -5.15625 7.859375 -6.03125 C 8.410156 -6.914062 8.6875 -9.296875 8.6875 -13.171875 L 8.6875 -29.796875 C 8.6875 -30.703125 8.59375 -31.21875 8.40625 -31.34375 C 8.03125 -31.53125 7.289062 -31.8125 6.1875 -32.1875 C 5.082031 -32.570312 4.3125 -32.859375 3.875 -33.046875 C 3.082031 -33.421875 2.625 -33.75 2.5 -34.03125 C 2.4375 -34.164062 2.40625 -34.328125 2.40625 -34.515625 L 2.40625 -35.875 C 2.40625 -36.851562 2.863281 -37.5 3.78125 -37.8125 C 4.8125 -38.320312 5.789062 -38.753906 6.71875 -39.109375 C 7.65625 -39.472656 8.925781 -39.90625 10.53125 -40.40625 C 12.132812 -40.914062 13.582031 -41.4375 14.875 -41.96875 C 15.3125 -42.125 15.703125 -42.203125 16.046875 -42.203125 C 16.492188 -42.203125 16.875 -42.078125 17.1875 -41.828125 C 17.75 -41.390625 18.015625 -40.789062 17.984375 -40.03125 C 18.046875 -39.125 18.078125 -37.285156 18.078125 -34.515625 C 18.140625 -34.578125 18.398438 -35.1875 18.859375 -36.34375 C 19.316406 -37.507812 19.734375 -38.429688 20.109375 -39.109375 C 20.484375 -39.785156 20.910156 -40.25 21.390625 -40.5 C 22.296875 -40.945312 23.210938 -41.1875 24.140625 -41.21875 C 25.078125 -41.25 25.867188 -41.171875 26.515625 -40.984375 C 27.160156 -40.796875 27.992188 -40.523438 29.015625 -40.171875 C 30.035156 -39.828125 30.875 -39.59375 31.53125 -39.46875 L 32.390625 -39.140625 C 33.453125 -38.796875 33.984375 -38.242188 33.984375 -37.484375 C 33.984375 -37.265625 33.9375 -37.046875 33.84375 -36.828125 C 33.25 -35.097656 32.210938 -32.878906 30.734375 -30.171875 C 29.316406 -30.296875 27.835938 -30.75 26.296875 -31.53125 C 25.003906 -32.164062 24.046875 -32.484375 23.421875 -32.484375 C 21.878906 -32.484375 20.160156 -30.78125 18.265625 -27.375 L 18.265625 -13.828125 C 18.265625 -13.265625 18.28125 -12.554688 18.3125 -11.703125 C 18.34375 -10.859375 18.359375 -10.023438 18.359375 -9.203125 C 18.484375 -7.066406 18.742188 -5.800781 19.140625 -5.40625 C 19.535156 -5.007812 20.753906 -4.8125 22.796875 -4.8125 L 24.828125 -4.8125 C 25.929688 -4.8125 26.5625 -4.132812 26.71875 -2.78125 C 26.875 -1.425781 26.640625 -0.5 26.015625 0 C 25.765625 0.1875 25.335938 0.28125 24.734375 0.28125 C 23.253906 0.28125 21.128906 0.25 18.359375 0.1875 C 15.585938 0.125 13.0625 0.09375 10.78125 0.09375 C 8.5 0.09375 6.320312 0.15625 4.25 0.28125 C 4.15625 0.28125 4.0625 0.28125 3.96875 0.28125 C 3.207031 0.28125 2.71875 0.0625 2.5 -0.375 C 2.25 -0.882812 2.125 -1.5 2.125 -2.21875 Z M 2.125 -2.21875 "/></g></g></g><g fill="#282828" fill-opacity="1"><g transform="translate(189.382325, 63.07226)"><g><path d="M 0.9375 22.421875 C 1.257812 21.921875 1.90625 21.671875 2.875 21.671875 C 5.082031 21.671875 6.476562 21.179688 7.0625 20.203125 C 7.644531 19.234375 7.9375 16.5625 7.9375 12.1875 L 7.9375 -28.984375 C 7.9375 -29.835938 7.851562 -30.375 7.6875 -30.59375 C 7.53125 -30.8125 7.0625 -31.03125 6.28125 -31.25 C 5.90625 -31.375 5.347656 -31.5625 4.609375 -31.8125 C 3.867188 -32.070312 3.320312 -32.234375 2.96875 -32.296875 C 2.125 -32.484375 1.644531 -33.078125 1.53125 -34.078125 C 1.425781 -35.085938 1.625 -35.816406 2.125 -36.265625 C 2.1875 -36.390625 2.3125 -36.546875 2.5 -36.734375 L 13.265625 -43.203125 C 13.828125 -43.640625 14.519531 -43.859375 15.34375 -43.859375 C 15.53125 -43.859375 15.734375 -43.84375 15.953125 -43.8125 C 16.992188 -43.6875 17.515625 -42.945312 17.515625 -41.59375 L 17.515625 -36.546875 C 17.515625 -35.722656 17.703125 -35.4375 18.078125 -35.6875 C 23.210938 -39.28125 27.367188 -41.078125 30.546875 -41.078125 C 30.578125 -41.078125 30.609375 -41.078125 30.640625 -41.078125 C 34.953125 -41.078125 38.6875 -39.078125 41.84375 -35.078125 C 45.007812 -31.078125 46.59375 -26.515625 46.59375 -21.390625 C 46.59375 -15.191406 44.390625 -9.753906 39.984375 -5.078125 C 35.578125 -0.398438 30.429688 1.9375 24.546875 1.9375 C 22.816406 1.9375 20.722656 1.570312 18.265625 0.84375 C 18.078125 0.78125 17.90625 0.835938 17.75 1.015625 C 17.59375 1.191406 17.515625 1.46875 17.515625 1.84375 L 17.515625 12.1875 C 17.515625 15.332031 17.640625 17.5 17.890625 18.6875 C 18.140625 19.882812 18.554688 20.632812 19.140625 20.9375 C 19.722656 21.238281 20.816406 21.390625 22.421875 21.390625 L 23.796875 21.390625 C 25.210938 21.390625 26.078125 21.859375 26.390625 22.796875 C 26.515625 23.179688 26.578125 23.71875 26.578125 24.40625 C 26.578125 25.101562 26.484375 25.640625 26.296875 26.015625 C 25.921875 26.640625 25.179688 26.953125 24.078125 26.953125 C 22.597656 26.890625 15.53125 26.859375 2.875 26.859375 C 1.96875 26.859375 1.320312 26.578125 0.9375 26.015625 C 0.5625 25.472656 0.375 24.90625 0.375 24.3125 C 0.375 23.71875 0.5625 23.085938 0.9375 22.421875 Z M 17.515625 -8.6875 C 20.722656 -5.664062 23.929688 -4.15625 27.140625 -4.15625 C 29.847656 -4.15625 32.140625 -5.476562 34.015625 -8.125 C 35.890625 -10.769531 36.828125 -14.117188 36.828125 -18.171875 C 36.828125 -22.734375 35.78125 -26.421875 33.6875 -29.234375 C 31.59375 -32.054688 29.003906 -33.46875 25.921875 -33.46875 C 23.710938 -33.46875 21.003906 -32.210938 17.796875 -29.703125 C 17.609375 -29.503906 17.515625 -29.171875 17.515625 -28.703125 Z M 17.515625 -8.6875 "/></g></g></g><g fill="#282828" fill-opacity="1"><g transform="translate(238.295389, 63.07226)"><g/></g></g><g fill="#282828" fill-opacity="1"><g transform="translate(261.949308, 63.07226)"><g><path d="M 3.40625 -15.859375 C 3.40625 -21.023438 5.460938 -25.335938 9.578125 -28.796875 C 11.441406 -30.398438 14.703125 -32.242188 19.359375 -34.328125 C 19.609375 -34.578125 19.671875 -34.765625 19.546875 -34.890625 C 15.671875 -38.628906 13.734375 -42.625 13.734375 -46.875 C 13.734375 -50.75 15.148438 -53.863281 17.984375 -56.21875 C 20.816406 -58.582031 24.453125 -59.765625 28.890625 -59.765625 C 32.890625 -59.765625 36.257812 -58.75 39 -56.71875 C 41.738281 -54.6875 43.109375 -52.019531 43.109375 -48.71875 C 43.109375 -44.09375 40.082031 -40.035156 34.03125 -36.546875 C 33.53125 -36.222656 33.5 -35.90625 33.9375 -35.59375 C 35.675781 -34.238281 37.863281 -32.304688 40.5 -29.796875 C 43.144531 -27.335938 45.363281 -24.816406 47.15625 -22.234375 C 47.414062 -21.796875 47.75 -21.796875 48.15625 -22.234375 C 50.070312 -24.753906 51.941406 -27.335938 53.765625 -29.984375 C 55.753906 -33.066406 57.203125 -35.898438 58.109375 -38.484375 C 58.242188 -39.109375 58.242188 -39.4375 58.109375 -39.46875 C 57.984375 -39.53125 57.769531 -39.578125 57.46875 -39.609375 C 57.175781 -39.640625 56.96875 -39.65625 56.84375 -39.65625 C 56.40625 -39.71875 55.800781 -39.78125 55.03125 -39.84375 C 54.257812 -39.90625 53.773438 -39.9375 53.578125 -39.9375 C 52.484375 -40.445312 52.125 -41.535156 52.5 -43.203125 C 52.6875 -44.046875 53.300781 -44.46875 54.34375 -44.46875 L 54.71875 -44.46875 C 60.445312 -44.34375 65.953125 -44.375 71.234375 -44.5625 C 71.742188 -44.6875 72.222656 -44.59375 72.671875 -44.28125 C 73.128906 -43.96875 73.390625 -43.515625 73.453125 -42.921875 L 73.453125 -41.6875 C 73.453125 -40.519531 72.710938 -39.875 71.234375 -39.75 C 71.046875 -39.75 70.351562 -39.703125 69.15625 -39.609375 C 67.96875 -39.515625 67.003906 -39.363281 66.265625 -39.15625 C 65.523438 -38.957031 64.929688 -38.632812 64.484375 -38.1875 C 63.765625 -37.46875 62.601562 -35.691406 61 -32.859375 C 60.550781 -32.003906 60.019531 -30.972656 59.40625 -29.765625 C 58.800781 -28.554688 58.4375 -27.859375 58.3125 -27.671875 C 56.320312 -24.171875 53.957031 -20.878906 51.21875 -17.796875 C 50.84375 -17.296875 50.71875 -16.9375 50.84375 -16.71875 C 51.28125 -16.082031 51.84375 -15.148438 52.53125 -13.921875 C 53.226562 -12.703125 53.707031 -11.898438 53.96875 -11.515625 C 55.570312 -8.554688 56.804688 -6.648438 57.671875 -5.796875 C 58.535156 -4.953125 59.488281 -4.53125 60.53125 -4.53125 C 62.007812 -4.53125 64.460938 -5.695312 67.890625 -8.03125 C 68.515625 -8.15625 69.148438 -7.925781 69.796875 -7.34375 C 70.441406 -6.757812 70.796875 -6.113281 70.859375 -5.40625 C 70.921875 -4.695312 70.703125 -4.15625 70.203125 -3.78125 C 65.421875 -0.03125 61 1.84375 56.9375 1.84375 C 56.082031 1.84375 55.289062 1.796875 54.5625 1.703125 C 53.84375 1.609375 53.144531 1.410156 52.46875 1.109375 C 51.789062 0.804688 51.222656 0.5625 50.765625 0.375 C 50.316406 0.1875 49.816406 -0.195312 49.265625 -0.78125 C 48.710938 -1.363281 48.296875 -1.765625 48.015625 -1.984375 C 47.734375 -2.203125 47.332031 -2.710938 46.8125 -3.515625 C 46.289062 -4.316406 45.96875 -4.832031 45.84375 -5.0625 C 45.71875 -5.300781 45.378906 -5.914062 44.828125 -6.90625 C 44.273438 -7.90625 43.9375 -8.5 43.8125 -8.6875 L 43.203125 -9.109375 C 35.710938 -1.835938 28.410156 1.8125 21.296875 1.84375 C 16.316406 1.84375 12.085938 0.132812 8.609375 -3.28125 C 5.140625 -6.695312 3.40625 -10.890625 3.40625 -15.859375 Z M 14.875 -17 C 14.875 -13.726562 15.820312 -11.125 17.71875 -9.1875 C 19.625 -7.25 22.132812 -6.28125 25.25 -6.28125 C 27.644531 -6.28125 30.203125 -6.894531 32.921875 -8.125 C 35.648438 -9.351562 38.050781 -10.988281 40.125 -13.03125 C 40.695312 -13.625 40.789062 -14.050781 40.40625 -14.3125 C 35.90625 -21.070312 30.460938 -26.578125 24.078125 -30.828125 C 24.015625 -30.890625 23.796875 -30.765625 23.421875 -30.453125 C 20.335938 -28.179688 18.140625 -26 16.828125 -23.90625 C 15.523438 -21.8125 14.875 -19.507812 14.875 -17 Z M 23.328125 -49.28125 C 23.328125 -45.851562 25.148438 -42.644531 28.796875 -39.65625 C 28.984375 -39.46875 29.25 -39.46875 29.59375 -39.65625 C 32.488281 -41.632812 33.9375 -44.40625 33.9375 -47.96875 C 33.9375 -50.101562 33.414062 -51.757812 32.375 -52.9375 C 31.34375 -54.125 29.960938 -54.71875 28.234375 -54.71875 C 24.960938 -54.71875 23.328125 -52.90625 23.328125 -49.28125 Z M 23.328125 -49.28125 "/></g></g></g><g fill="#282828" fill-opacity="1"><g transform="translate(98.499555, 145.037193)"><g><path d="M 0.84375 -37.203125 C 0.78125 -37.515625 0.75 -37.796875 0.75 -38.046875 C 0.75 -38.679688 0.894531 -39.1875 1.1875 -39.5625 C 1.5625 -40.125 2.15625 -40.34375 2.96875 -40.21875 C 13.414062 -40.21875 19.316406 -40.25 20.671875 -40.3125 C 21.648438 -40.3125 22.296875 -39.796875 22.609375 -38.765625 C 22.859375 -38.253906 22.875 -37.613281 22.65625 -36.84375 C 22.4375 -36.070312 21.984375 -35.65625 21.296875 -35.59375 C 18.835938 -35.53125 17.609375 -35.144531 17.609375 -34.4375 C 17.609375 -33.726562 20.410156 -26.5625 26.015625 -12.9375 C 26.328125 -12.144531 26.671875 -12.144531 27.046875 -12.9375 L 34.328125 -29.796875 C 33.222656 -31.992188 32.351562 -33.40625 31.71875 -34.03125 C 30.75 -34.945312 29.585938 -35.40625 28.234375 -35.40625 C 27.859375 -35.46875 27.441406 -35.5 26.984375 -35.5 C 26.523438 -35.5 26.140625 -35.75 25.828125 -36.25 C 25.515625 -36.757812 25.359375 -37.28125 25.359375 -37.8125 C 25.285156 -38.382812 25.375 -38.941406 25.625 -39.484375 C 25.882812 -40.035156 26.265625 -40.3125 26.765625 -40.3125 C 32.867188 -40.15625 37.546875 -40.078125 40.796875 -40.078125 C 43.210938 -40.078125 44.832031 -40.125 45.65625 -40.21875 L 46.21875 -40.3125 C 46.34375 -40.3125 46.453125 -40.3125 46.546875 -40.3125 C 47.742188 -40.3125 48.421875 -39.648438 48.578125 -38.328125 C 48.609375 -38.078125 48.625 -37.84375 48.625 -37.625 C 48.625 -36.550781 48.3125 -35.84375 47.6875 -35.5 C 44.789062 -35.4375 43.34375 -34.984375 43.34375 -34.140625 C 43.34375 -33.503906 43.78125 -32.117188 44.65625 -29.984375 L 51.9375 -13.171875 C 52.1875 -12.378906 52.46875 -12.410156 52.78125 -13.265625 C 53.882812 -15.785156 55.050781 -18.554688 56.28125 -21.578125 C 58.851562 -27.648438 60.238281 -31.222656 60.4375 -32.296875 C 60.625 -33.203125 60.539062 -33.890625 60.1875 -34.359375 C 59.84375 -34.835938 59.425781 -35.128906 58.9375 -35.234375 C 58.445312 -35.347656 57.71875 -35.4375 56.75 -35.5 L 54.53125 -35.5 C 53.894531 -35.6875 53.5625 -36.535156 53.53125 -38.046875 C 53.5 -39.554688 53.957031 -40.3125 54.90625 -40.3125 C 57.175781 -40.25 59.671875 -40.21875 62.390625 -40.21875 C 65.109375 -40.21875 68.054688 -40.25 71.234375 -40.3125 C 71.367188 -40.34375 71.5 -40.359375 71.625 -40.359375 C 72.34375 -40.390625 72.828125 -40.0625 73.078125 -39.375 C 73.265625 -38.9375 73.359375 -38.492188 73.359375 -38.046875 C 73.359375 -37.671875 73.296875 -37.296875 73.171875 -36.921875 C 72.921875 -36.035156 72.515625 -35.5625 71.953125 -35.5 C 69.804688 -35.375 68.421875 -34.882812 67.796875 -34.03125 C 67.484375 -33.59375 66.867188 -32.273438 65.953125 -30.078125 C 62.273438 -21.515625 58.117188 -11.519531 53.484375 -0.09375 C 53.296875 0.40625 52.71875 0.71875 51.75 0.84375 C 50.894531 0.96875 50.070312 0.9375 49.28125 0.75 C 48.25 0.6875 47.539062 0.25 47.15625 -0.5625 L 38 -22.421875 C 37.625 -23.210938 37.296875 -23.304688 37.015625 -22.703125 C 35.660156 -19.929688 33.84375 -15.804688 31.5625 -10.328125 C 29.28125 -4.859375 27.882812 -1.539062 27.375 -0.375 C 27.0625 0.46875 26.546875 0.953125 25.828125 1.078125 C 25.441406 1.210938 24.988281 1.28125 24.46875 1.28125 C 23.957031 1.28125 23.398438 1.210938 22.796875 1.078125 C 22.078125 0.890625 21.5 0.3125 21.0625 -0.65625 L 9.484375 -28.328125 C 8.066406 -31.597656 7.003906 -33.578125 6.296875 -34.265625 C 5.585938 -34.960938 4.164062 -35.375 2.03125 -35.5 C 1.4375 -35.5625 1.039062 -36.128906 0.84375 -37.203125 Z M 0.84375 -37.203125 "/></g></g></g><g fill="#282828" fill-opacity="1"><g transform="translate(172.813419, 145.037193)"><g><path d="M 2.03125 -19.546875 C 2.03125 -25.804688 3.960938 -31.03125 7.828125 -35.21875 C 11.703125 -39.40625 16.566406 -41.5 22.421875 -41.5 C 29.316406 -41.5 34.117188 -38.585938 36.828125 -32.765625 C 37.859375 -30.679688 38.738281 -29.203125 39.46875 -28.328125 C 39.6875 -27.890625 39.796875 -27.445312 39.796875 -27 C 39.796875 -26.625 39.71875 -26.25 39.5625 -25.875 C 39.25 -25.050781 38.539062 -24.609375 37.4375 -24.546875 C 35.070312 -24.453125 31.828125 -24.40625 27.703125 -24.40625 C 23.585938 -24.40625 18.601562 -24.453125 12.75 -24.546875 C 11.832031 -24.546875 11.390625 -23.648438 11.421875 -21.859375 C 11.421875 -17.359375 12.640625 -13.648438 15.078125 -10.734375 C 17.523438 -7.828125 20.585938 -6.375 24.265625 -6.375 C 28.328125 -6.375 31.960938 -8.242188 35.171875 -11.984375 C 35.796875 -12.710938 36.613281 -12.96875 37.625 -12.75 C 38.257812 -12.625 38.769531 -12.175781 39.15625 -11.40625 C 39.550781 -10.632812 39.546875 -9.929688 39.140625 -9.296875 C 32.742188 -2.148438 26.523438 1.4375 20.484375 1.46875 C 15.203125 1.46875 10.804688 -0.578125 7.296875 -4.671875 C 3.785156 -8.765625 2.03125 -13.722656 2.03125 -19.546875 Z M 12.5625 -29.796875 C 12.6875 -29.597656 13.109375 -29.5 13.828125 -29.5 L 26.859375 -29.5 C 27.203125 -29.5 27.503906 -29.566406 27.765625 -29.703125 C 27.953125 -29.796875 28.046875 -29.921875 28.046875 -30.078125 C 28.046875 -34.453125 25.460938 -36.640625 20.296875 -36.640625 C 16.960938 -36.640625 14.382812 -34.359375 12.5625 -29.796875 Z M 12.5625 -29.796875 "/></g></g></g><g fill="#282828" fill-opacity="1"><g transform="translate(214.077915, 145.037193)"><g><path d="M 1.9375 -34.515625 C 1.75 -35.140625 1.65625 -35.6875 1.65625 -36.15625 C 1.65625 -37.070312 1.96875 -37.75 2.59375 -38.1875 C 6.65625 -39.351562 8.78125 -40.191406 8.96875 -40.703125 C 9.03125 -40.890625 9.078125 -41.21875 9.109375 -41.6875 C 9.109375 -41.9375 9.125 -42.398438 9.15625 -43.078125 C 9.1875 -43.753906 9.203125 -44.375 9.203125 -44.9375 C 9.390625 -48.8125 9.960938 -52.007812 10.921875 -54.53125 C 11.890625 -57.050781 13.628906 -59.691406 16.140625 -62.453125 C 20.992188 -67.679688 26.1875 -70.296875 31.71875 -70.296875 C 33.582031 -70.296875 35.640625 -69.894531 37.890625 -69.09375 C 40.140625 -68.289062 41.78125 -67.148438 42.8125 -65.671875 C 43.070312 -65.234375 43.203125 -64.679688 43.203125 -64.015625 C 43.203125 -63.140625 42.523438 -61.660156 41.171875 -59.578125 C 40.535156 -58.535156 39.75 -58.015625 38.8125 -58.015625 C 37.957031 -58.015625 36.976562 -58.457031 35.875 -59.34375 C 33.101562 -61.675781 30.304688 -62.84375 27.484375 -62.84375 C 25.804688 -62.84375 24.28125 -62.34375 22.90625 -61.34375 C 21.539062 -60.351562 20.546875 -59.007812 19.921875 -57.3125 C 19.066406 -54.945312 18.640625 -52.175781 18.640625 -49 C 18.640625 -48.78125 18.640625 -48.5625 18.640625 -48.34375 L 18.75 -42.25 C 18.75 -41.40625 18.953125 -40.984375 19.359375 -40.984375 L 25.921875 -40.984375 C 27.210938 -40.984375 27.953125 -40.664062 28.140625 -40.03125 L 28.328125 -39.65625 L 28.984375 -34.890625 C 28.859375 -34.160156 28.65625 -33.6875 28.375 -33.46875 C 28.09375 -33.25 27.554688 -33.140625 26.765625 -33.140625 L 18.9375 -33.28125 C 18.8125 -33.28125 18.75 -32.890625 18.75 -32.109375 L 18.75 -13.03125 C 18.75 -9.15625 19.015625 -6.875 19.546875 -6.1875 C 19.859375 -5.75 20.566406 -5.445312 21.671875 -5.28125 C 22.421875 -5.15625 23.144531 -5.09375 23.84375 -5.09375 C 24.1875 -5.09375 24.515625 -5.09375 24.828125 -5.09375 C 25.804688 -5.1875 26.65625 -5.203125 27.375 -5.140625 C 28.664062 -5.078125 29.375 -4.101562 29.5 -2.21875 C 29.5 -1.65625 29.316406 -1.097656 28.953125 -0.546875 C 28.597656 0.00390625 28.171875 0.28125 27.671875 0.28125 C 22.878906 0.125 18.5 0.046875 14.53125 0.046875 C 10.570312 0.046875 7.050781 0.125 3.96875 0.28125 C 3.90625 0.28125 3.84375 0.28125 3.78125 0.28125 C 3.300781 0.28125 2.921875 0.03125 2.640625 -0.46875 C 2.296875 -1.007812 2.125 -1.59375 2.125 -2.21875 C 2.125 -2.65625 2.21875 -3.144531 2.40625 -3.6875 C 2.8125 -4.5 3.628906 -4.90625 4.859375 -4.90625 C 4.921875 -4.90625 4.96875 -4.90625 5 -4.90625 C 6.800781 -4.90625 7.910156 -5.34375 8.328125 -6.21875 C 8.753906 -7.101562 8.96875 -9.484375 8.96875 -13.359375 L 8.96875 -32.578125 C 8.96875 -32.953125 8.78125 -33.25 8.40625 -33.46875 L 3.96875 -33.46875 C 2.800781 -33.46875 2.125 -33.816406 1.9375 -34.515625 Z M 1.9375 -34.515625 "/></g></g></g><g fill="#282828" fill-opacity="1"><g transform="translate(245.380392, 145.037193)"><g><path d="M 1.9375 -37.625 C 2.25 -38.195312 2.671875 -38.578125 3.203125 -38.765625 C 6.296875 -40.304688 8.972656 -44.175781 11.234375 -50.375 C 11.421875 -51.351562 12.222656 -51.84375 13.640625 -51.84375 C 14.992188 -51.84375 15.671875 -51.304688 15.671875 -50.234375 L 15.53125 -45.140625 C 15.53125 -43.722656 15.578125 -42.539062 15.671875 -41.59375 C 15.671875 -41.53125 15.734375 -41.484375 15.859375 -41.453125 C 15.984375 -41.421875 16.109375 -41.378906 16.234375 -41.328125 C 16.359375 -41.285156 16.457031 -41.265625 16.53125 -41.265625 L 25.921875 -41.265625 C 26.546875 -41.265625 27.117188 -41.039062 27.640625 -40.59375 C 28.160156 -40.15625 28.296875 -39.484375 28.046875 -38.578125 C 27.796875 -37.410156 27.460938 -36.320312 27.046875 -35.3125 C 26.609375 -34.457031 25.804688 -34.03125 24.640625 -34.03125 L 16.625 -34.234375 C 15.988281 -34.234375 15.671875 -33.710938 15.671875 -32.671875 L 15.671875 -17.609375 C 15.671875 -12.890625 16.023438 -9.820312 16.734375 -8.40625 C 17.441406 -6.988281 18.660156 -6.28125 20.390625 -6.28125 C 21.992188 -6.28125 23.566406 -7.726562 25.109375 -10.625 C 25.554688 -11.40625 26.1875 -11.75 27 -11.65625 C 27.820312 -11.5625 28.453125 -11.28125 28.890625 -10.8125 C 29.234375 -10.375 29.40625 -9.867188 29.40625 -9.296875 C 29.40625 -8.921875 29.328125 -8.5 29.171875 -8.03125 C 26.492188 -1.957031 22.578125 1.078125 17.421875 1.078125 C 14.148438 1.078125 11.488281 -0.113281 9.4375 -2.5 C 7.394531 -4.894531 6.375 -7.929688 6.375 -11.609375 L 6.375 -32.765625 C 6.375 -33.546875 6.21875 -33.96875 5.90625 -34.03125 C 5.175781 -34.101562 4.039062 -34.234375 2.5 -34.421875 C 2 -35.265625 1.75 -36.019531 1.75 -36.6875 C 1.75 -37.03125 1.8125 -37.34375 1.9375 -37.625 Z M 1.9375 -37.625 "/></g></g></g></svg>