<svg xmlns="http://www.w3.org/2000/svg" xmlns:xlink="http://www.w3.org/1999/xlink" width="500" zoomAndPan="magnify" viewBox="0 0 375 374.999991" height="500" preserveAspectRatio="xMidYMid meet" version="1.0"><defs><g/></defs><g fill="#000000" fill-opacity="1"><g transform="translate(0.0000045, 91.799717)"><g><path d="M 47.890625 -63.53125 L 59.25 -63.53125 C 61.445312 -63.53125 62.832031 -62.550781 63.40625 -60.59375 L 71.34375 -35.1875 L 78.796875 -60.59375 C 79.367188 -62.550781 80.753906 -63.53125 82.953125 -63.53125 L 101.765625 -63.53125 C 102.578125 -63.53125 103.269531 -63.242188 103.84375 -62.671875 C 104.414062 -62.097656 104.703125 -61.523438 104.703125 -60.953125 C 104.703125 -60.390625 104.660156 -59.945312 104.578125 -59.625 L 86.734375 -3.046875 C 86.085938 -1.015625 84.742188 0 82.703125 0 L 66.34375 0 C 64.300781 0 62.957031 -1.015625 62.3125 -3.046875 L 53.640625 -27.734375 L 44.84375 -3.046875 C 44.1875 -1.015625 42.84375 0 40.8125 0 L 24.4375 0 C 22.394531 0 21.050781 -1.015625 20.40625 -3.046875 L 2.5625 -59.625 C 2.476562 -59.945312 2.4375 -60.390625 2.4375 -60.953125 C 2.4375 -61.523438 2.722656 -62.097656 3.296875 -62.671875 C 3.867188 -63.242188 4.5625 -63.53125 5.375 -63.53125 L 24.1875 -63.53125 C 26.382812 -63.53125 27.769531 -62.550781 28.34375 -60.59375 L 35.796875 -35.1875 L 43.734375 -60.59375 C 44.304688 -62.550781 45.691406 -63.53125 47.890625 -63.53125 Z M 47.890625 -63.53125 "/></g></g></g><g fill="#000000" fill-opacity="1"><g transform="translate(112.687008, 91.799717)"><g><path d="M 70.609375 -24.5625 L 34.203125 -24.5625 L 34.203125 -23.953125 C 34.203125 -18.984375 35.789062 -16.5 38.96875 -16.5 C 39.863281 -16.5 40.960938 -17.148438 42.265625 -18.453125 C 43.566406 -19.753906 44.992188 -20.40625 46.546875 -20.40625 L 69.640625 -20.40625 C 71.429688 -20.40625 72.328125 -19.507812 72.328125 -17.71875 C 72.328125 -13.726562 69.332031 -9.570312 63.34375 -5.25 C 57.351562 -0.9375 49.25 1.21875 39.03125 1.21875 C 28.8125 1.21875 20.460938 -1.445312 13.984375 -6.78125 C 7.515625 -12.113281 4.28125 -19.460938 4.28125 -28.828125 L 4.28125 -34.703125 C 4.28125 -43.578125 7.578125 -50.800781 14.171875 -56.375 C 20.765625 -61.957031 29.414062 -64.75 40.125 -64.75 C 50.84375 -64.75 59.148438 -61.613281 65.046875 -55.34375 C 70.953125 -49.070312 73.90625 -41.128906 73.90625 -31.515625 L 73.90625 -27.859375 C 73.90625 -26.960938 73.578125 -26.1875 72.921875 -25.53125 C 72.273438 -24.882812 71.503906 -24.5625 70.609375 -24.5625 Z M 43.984375 -40.3125 C 43.984375 -45.195312 42.351562 -47.640625 39.09375 -47.640625 C 35.832031 -47.640625 34.203125 -45.195312 34.203125 -40.3125 L 34.203125 -39.828125 L 43.984375 -39.828125 Z M 43.984375 -40.3125 "/></g></g></g><g fill="#000000" fill-opacity="1"><g transform="translate(199.830035, 91.799717)"><g><path d="M 41.53125 -65 L 41.53125 -63.53125 L 55.34375 -63.53125 C 56.238281 -63.53125 57.007812 -63.203125 57.65625 -62.546875 C 58.3125 -61.898438 58.640625 -61.128906 58.640625 -60.234375 L 58.640625 -45.453125 C 58.640625 -44.554688 58.3125 -43.78125 57.65625 -43.125 C 57.007812 -42.476562 56.238281 -42.15625 55.34375 -42.15625 L 41.53125 -42.15625 L 41.53125 -3.296875 C 41.53125 -2.398438 41.203125 -1.625 40.546875 -0.96875 C 39.898438 -0.320312 39.128906 0 38.234375 0 L 16.859375 0 C 15.960938 0 15.1875 -0.320312 14.53125 -0.96875 C 13.882812 -1.625 13.5625 -2.398438 13.5625 -3.296875 L 13.5625 -42.15625 L 5.125 -42.15625 C 4.226562 -42.15625 3.453125 -42.476562 2.796875 -43.125 C 2.148438 -43.78125 1.828125 -44.554688 1.828125 -45.453125 L 1.828125 -60.234375 C 1.828125 -61.128906 2.148438 -61.898438 2.796875 -62.546875 C 3.453125 -63.203125 4.226562 -63.53125 5.125 -63.53125 L 13.5625 -63.53125 L 13.5625 -65.609375 C 13.5625 -74.890625 16.367188 -81.34375 21.984375 -84.96875 C 27.609375 -88.59375 35.390625 -90.40625 45.328125 -90.40625 L 56.6875 -90.40625 C 57.582031 -90.40625 58.351562 -90.078125 59 -89.421875 C 59.65625 -88.773438 59.984375 -88.003906 59.984375 -87.109375 L 59.984375 -72.328125 C 59.984375 -71.429688 59.65625 -70.65625 59 -70 C 58.351562 -69.351562 57.582031 -69.03125 56.6875 -69.03125 L 46.796875 -69.03125 C 43.285156 -69.03125 41.53125 -67.6875 41.53125 -65 Z M 41.53125 -65 "/></g></g></g><g fill="#000000" fill-opacity="1"><g transform="translate(272.618483, 91.799717)"><g><path d="M 42.765625 -42.15625 L 42.765625 -28.703125 C 42.765625 -24.640625 44.515625 -22.609375 48.015625 -22.609375 L 59.125 -22.609375 C 60.019531 -22.609375 60.796875 -22.28125 61.453125 -21.625 C 62.109375 -20.96875 62.4375 -20.191406 62.4375 -19.296875 L 62.4375 -3.296875 C 62.4375 -2.398438 62.109375 -1.625 61.453125 -0.96875 C 60.796875 -0.320312 60.019531 0 59.125 0 L 45.328125 0 C 24.960938 0 14.78125 -8.753906 14.78125 -26.265625 L 14.78125 -42.15625 L 5.125 -42.15625 C 4.226562 -42.15625 3.453125 -42.476562 2.796875 -43.125 C 2.148438 -43.78125 1.828125 -44.554688 1.828125 -45.453125 L 1.828125 -60.234375 C 1.828125 -61.128906 2.148438 -61.898438 2.796875 -62.546875 C 3.453125 -63.203125 4.226562 -63.53125 5.125 -63.53125 L 14.78125 -63.53125 L 14.78125 -83.4375 C 14.78125 -84.332031 15.101562 -85.101562 15.75 -85.75 C 16.40625 -86.40625 17.179688 -86.734375 18.078125 -86.734375 L 39.46875 -86.734375 C 40.363281 -86.734375 41.132812 -86.40625 41.78125 -85.75 C 42.4375 -85.101562 42.765625 -84.332031 42.765625 -83.4375 L 42.765625 -63.53125 L 58.15625 -63.53125 C 59.050781 -63.53125 59.820312 -63.203125 60.46875 -62.546875 C 61.125 -61.898438 61.453125 -61.128906 61.453125 -60.234375 L 61.453125 -45.453125 C 61.453125 -44.554688 61.125 -43.78125 60.46875 -43.125 C 59.820312 -42.476562 59.050781 -42.15625 58.15625 -42.15625 Z M 42.765625 -42.15625 "/></g></g></g><g fill="#000000" fill-opacity="1"><g transform="translate(14.175491, 176.793555)"><g><path d="M 4.28125 -18.203125 C 4.28125 -29.203125 13.195312 -36.25 31.03125 -39.34375 L 43.984375 -41.421875 C 43.984375 -43.859375 43.78125 -45.503906 43.375 -46.359375 C 42.96875 -47.210938 42.007812 -47.640625 40.5 -47.640625 C 38.988281 -47.640625 37.5 -46.988281 36.03125 -45.6875 C 34.570312 -44.382812 33.191406 -43.734375 31.890625 -43.734375 L 11.125 -43.734375 C 9.332031 -43.734375 8.4375 -44.609375 8.4375 -46.359375 C 8.4375 -48.109375 9.066406 -49.984375 10.328125 -51.984375 C 11.585938 -53.984375 13.414062 -55.957031 15.8125 -57.90625 C 18.21875 -59.863281 21.597656 -61.492188 25.953125 -62.796875 C 30.316406 -64.097656 35.1875 -64.75 40.5625 -64.75 C 51.476562 -64.75 59.660156 -62.46875 65.109375 -57.90625 C 70.566406 -53.34375 73.296875 -46.828125 73.296875 -38.359375 L 73.296875 -3.296875 C 73.296875 -2.398438 72.96875 -1.625 72.3125 -0.96875 C 71.664062 -0.320312 70.894531 0 70 0 L 48.625 0 C 47.726562 0 46.953125 -0.320312 46.296875 -0.96875 C 45.648438 -1.625 45.328125 -2.398438 45.328125 -3.296875 L 45.328125 -6.71875 C 41.492188 -1.425781 35.910156 1.21875 28.578125 1.21875 C 21.253906 1.21875 15.375 -0.628906 10.9375 -4.328125 C 6.5 -8.035156 4.28125 -12.660156 4.28125 -18.203125 Z M 36.40625 -16.859375 C 41.695312 -16.859375 44.34375 -20.035156 44.34375 -26.390625 L 37.140625 -24.796875 C 33.554688 -23.984375 31.765625 -22.476562 31.765625 -20.28125 C 31.765625 -19.300781 32.171875 -18.484375 32.984375 -17.828125 C 33.796875 -17.179688 34.9375 -16.859375 36.40625 -16.859375 Z M 36.40625 -16.859375 "/></g></g></g><g fill="#000000" fill-opacity="1"><g transform="translate(21.20059, 263.022991)"><g><path d="M 32.859375 -60.234375 L 32.859375 -55.953125 C 38.566406 -61.003906 44.921875 -63.53125 51.921875 -63.53125 L 57.78125 -63.53125 C 58.675781 -63.53125 59.453125 -63.203125 60.109375 -62.546875 C 60.765625 -61.898438 61.09375 -61.128906 61.09375 -60.234375 L 61.09375 -41.171875 C 61.09375 -40.273438 60.765625 -39.5 60.109375 -38.84375 C 59.453125 -38.195312 58.675781 -37.875 57.78125 -37.875 L 42.03125 -37.875 C 39.832031 -37.875 38.097656 -37.363281 36.828125 -36.34375 C 35.566406 -35.320312 34.859375 -33.957031 34.703125 -32.25 L 34.703125 -3.296875 C 34.703125 -2.398438 34.375 -1.625 33.71875 -0.96875 C 33.0625 -0.320312 32.285156 0 31.390625 0 L 8.1875 0 C 7.289062 0 6.515625 -0.320312 5.859375 -0.96875 C 5.210938 -1.625 4.890625 -2.398438 4.890625 -3.296875 L 4.890625 -60.234375 C 4.890625 -61.128906 5.210938 -61.898438 5.859375 -62.546875 C 6.515625 -63.203125 7.289062 -63.53125 8.1875 -63.53125 L 29.5625 -63.53125 C 30.457031 -63.53125 31.226562 -63.203125 31.875 -62.546875 C 32.53125 -61.898438 32.859375 -61.128906 32.859375 -60.234375 Z M 32.859375 -60.234375 "/></g></g></g><g fill="#000000" fill-opacity="1"><g transform="translate(12.707826, 345.848063)"><g><path d="M 77.453125 -36.53125 L 77.453125 -26.875 C 77.453125 -17.75 75.007812 -10.785156 70.125 -5.984375 C 65.238281 -1.179688 59.269531 1.21875 52.21875 1.21875 C 45.175781 1.21875 39.539062 -0.691406 35.3125 -4.515625 L 35.3125 19.90625 C 35.3125 20.8125 34.984375 21.585938 34.328125 22.234375 C 33.679688 22.890625 32.910156 23.21875 32.015625 23.21875 L 9.40625 23.21875 C 8.507812 23.21875 7.734375 22.890625 7.078125 22.234375 C 6.429688 21.585938 6.109375 20.8125 6.109375 19.90625 L 6.109375 -60.234375 C 6.109375 -61.128906 6.429688 -61.898438 7.078125 -62.546875 C 7.734375 -63.203125 8.507812 -63.53125 9.40625 -63.53125 L 30.171875 -63.53125 C 31.066406 -63.53125 31.835938 -63.203125 32.484375 -62.546875 C 33.140625 -61.898438 33.46875 -61.128906 33.46875 -60.234375 L 33.46875 -56.5625 C 37.707031 -62.019531 43.695312 -64.75 51.4375 -64.75 C 59.175781 -64.75 65.445312 -62.445312 70.25 -57.84375 C 75.050781 -53.25 77.453125 -46.144531 77.453125 -36.53125 Z M 35.3125 -35.796875 L 35.3125 -26.75 C 35.550781 -22.675781 37.585938 -20.640625 41.421875 -20.640625 C 45.492188 -20.640625 47.53125 -23.003906 47.53125 -27.734375 L 47.53125 -35.796875 C 47.53125 -40.515625 45.492188 -42.875 41.421875 -42.875 C 37.347656 -42.875 35.3125 -40.515625 35.3125 -35.796875 Z M 35.3125 -35.796875 "/></g></g></g></svg>